<?xml version="1.0" standalone="no"?>
<!DOCTYPE svg PUBLIC "-//W3C//DTD SVG 1.1//EN" "http://www.w3.org/Graphics/SVG/1.1/DTD/svg11.dtd" >
<svg xmlns="http://www.w3.org/2000/svg">
<defs>
  <font id="aidicon" horiz-adv-x="1000">
    <font-face font-family="aidicon"
      units-per-em="1000" ascent="1000"
      descent="0" />
    <missing-glyph horiz-adv-x="0" />
    <glyph glyph-name="access-point-network"
      unicode="&#xEA01;"
      horiz-adv-x="1000" d="M216.796875 905.986328125A389.93164062500006 389.93164062500006 0 0 1 131.77734375 779.033203125A404.74609375 404.74609375 0 0 1 131.77734375 467.646484375A389.6484375 389.6484375 0 0 1 216.796875 340.693359375L147.34375 270.048828125A501.35742187499994 501.35742187499994 0 0 0 39.521484375 429.326171875Q0 521.533203125 0 623.33984375T39.521484375 817.3828125A501.953125 501.953125 0 0 0 147.314453125 976.650390625zM549.697265625 423.33984375V223.33984375H600.009765625Q620.3515625 223.33984375 635.3222656249999 208.96484375T650.302734375 174.2382812500001H1000V73.6523437500001H650.302734375Q650.302734375 53.291015625 635.3222656249999 38.3203125000001T600.009765625 23.3496093750001H399.990234375Q379.62890625 23.3496093750001 364.658203125 38.3203125000001T349.6875 73.6523437500001H0V174.2382812500001H349.697265625Q349.697265625 194.5996093750001 364.66796875 208.96484375T400 223.33984375H450.3125V423.33984375zM358.0859375 764.6484375A193.43750000000003 193.43750000000003 0 0 1 315.556640625 700.576171875A206.81640625 206.81640625 0 0 1 315.556640625 546.083984375A193.125 193.125 0 0 1 358.0859375 482.01171875L288.623046875 411.34765625A305.126953125 305.126953125 0 0 0 223.349609375 507.8125Q199.990234375 562.3046875 199.990234375 623.388671875T223.349609375 738.955078125A305.458984375 305.458984375 0 0 0 288.61328125 835.361328125zM570.6640625 693.359375Q599.9609375 664.0625 599.9609375 622.6953125T570.6640625 552.63671875Q541.3671875 523.88671875 500 523.896484375T429.3359375 552.734375Q400.0390625 581.46484375 400.0390625 622.79296875T429.3359375 693.45703125Q458.6328125 722.75390625 500.625 722.75390625Q541.30859375 722.75390625 570.6640625 693.408203125zM776.650390625 738.8671875Q800.0097656249999 684.375 800.0097656249999 623.30078125T776.650390625 507.8125A305.126953125 305.126953125 0 0 0 711.3867187499999 411.40625L641.9140625 482.03125A193.359375 193.359375 0 0 1 684.423828125 546.103515625A206.63085937499997 206.63085937499997 0 0 1 684.423828125 700.595703125A193.62304687500003 193.62304687500003 0 0 1 641.9140625 764.6484375L711.376953125 835.3125A305.458984375 305.458984375 0 0 0 776.650390625 738.916015625zM960.478515625 817.3828125Q1000 725.13671875 1000 623.33984375T960.478515625 429.326171875A501.61132812499994 501.61132812499994 0 0 0 852.685546875 270.05859375L783.203125 340.712890625A389.84375 389.84375 0 0 1 868.22265625 467.666015625A404.74609375 404.74609375 0 0 1 868.22265625 779.052734375A390.166015625 390.166015625 0 0 1 783.203125 905.986328125L852.65625 976.650390625A502.17773437500006 502.17773437500006 0 0 0 960.478515625 817.3828125z" />
    <glyph glyph-name="access-point"
      unicode="&#xEA02;"
      horiz-adv-x="1000" d="M216.796875 783.203125A389.93164062500006 389.93164062500006 0 0 1 131.73828125 656.25Q100.5859375 582.03125 100.5859375 500T131.73828125 343.75A389.6484375 389.6484375 0 0 1 216.796875 216.796875L147.34375 147.34375A505.3125000000001 505.3125000000001 0 0 0 39.521484375 305.380859375A498.96484374999994 498.96484374999994 0 0 0 39.521484375 694.609375Q77.841796875 783.203125 147.314453125 852.685546875zM358.0859375 641.9140625A193.43750000000003 193.43750000000003 0 0 1 315.556640625 577.841796875A209.96093750000003 209.96093750000003 0 0 1 315.556640625 422.158203125A193.125 193.125 0 0 1 358.0859375 358.0859375L288.623046875 288.623046875A289.8046875 289.8046875 0 0 0 223.359375 384.443359375A297.55859375 297.55859375 0 0 0 223.359375 615.56640625A289.9609375 289.9609375 0 0 0 288.623046875 711.38671875zM570.6640625 570.625Q599.9609375 541.328125 599.9609375 499.9609375000001T570.6640625 429.296875Q541.3671875 400 500 400T429.3359375 429.296875Q400.0390625 458.59375 400.0390625 499.9609375000001T429.3359375 570.625Q458.6328125 599.921875 500.625 599.921875Q541.30859375 600.009765625 570.6640625 570.6640625zM776.650390625 615.546875A297.55859375 297.55859375 0 0 0 776.650390625 384.423828125A289.8046875 289.8046875 0 0 0 711.3867187499999 288.603515625L641.9238281249999 358.06640625A193.359375 193.359375 0 0 1 684.4335937499999 422.138671875A209.71679687499997 209.71679687499997 0 0 1 684.4335937499999 577.822265625A193.62304687500003 193.62304687500003 0 0 1 641.9238281249999 641.89453125L711.3867187499999 711.357421875A289.9609375 289.9609375 0 0 0 776.650390625 615.56640625zM960.48828125 694.599609375A498.96484374999994 498.96484374999994 0 0 0 960.48828125 305.37109375Q922.158203125 216.796875 852.685546875 147.314453125L783.203125 216.796875A389.84375 389.84375 0 0 1 868.26171875 343.75A407.74414062499994 407.74414062499994 0 0 1 868.26171875 656.328125A390.166015625 390.166015625 0 0 1 783.203125 783.203125L852.65625 852.65625Q922.1484375 783.203125 960.478515625 694.619140625z" />
    <glyph glyph-name="account-alert"
      unicode="&#xEA03;"
      horiz-adv-x="1000" d="M399.990234375 399.990234375Q508.9746093749999 399.990234375 601.1621093749999 372.44140625Q692.16796875 346.07421875 746.0644531249999 300.5859375T799.9609374999999 200V100.5859375H0V200Q0 255.0781249999999 53.896484375 300.5859375T198.798828125 372.44140625Q291.015625 399.98046875 399.990234375 399.990234375zM399.990234375 899.404296875A194.86328125 194.86328125 0 0 0 500 872.451171875A201.81640624999997 201.81640624999997 0 0 0 573.046875 800.009765625Q599.990234375 754.4921875 600 700T573.046875 599.4140625A195.69335937499997 195.69335937499997 0 0 0 499.9999999999999 526.953125A198.18359374999997 198.18359374999997 0 0 0 399.990234375 500.5859374999999Q346.1132812499999 500.5859374999999 300 526.953125A195.625 195.625 0 0 0 226.93359375 599.4140625Q200 645.5078125 200 700T226.93359375 800A201.73828125000003 201.73828125000003 0 0 0 300 872.44140625A194.76562500000003 194.76562500000003 0 0 0 399.990234375 899.4140625zM899.4140625 500.60546875V749.70703125H1000V500.60546875zM899.4140625 300.595703125V399.990234375H1000V300.595703125z" />
    <glyph glyph-name="account-box-outline"
      unicode="&#xEA04;"
      horiz-adv-x="1000" d="M967.373046875 967.373046875Q1000 934.74609375 1000 889.482421875V111.8457031250001Q1000 65.25390625 967.373046875 32.6269531250001T888.154296875 0H111.845703125Q65.25390625 0 32.626953125 32.626953125T0 111.845703125V889.482421875Q0 934.736328125 32.626953125 967.373046875T111.845703125 1000H888.154296875Q934.74609375 1000 967.373046875 967.373046875zM888.154296875 889.482421875H111.845703125V111.8457031250001H888.154296875zM749.66796875 222.36328125H250.33203125V263.671875Q250.33203125 302.275390625 296.923828125 332.91015625Q335.546875 359.53125 398.134765625 375.517578125Q454.1015625 388.80859375 500 388.80859375T601.865234375 375.498046875Q664.443359375 359.51171875 703.0761718749999 332.890625Q749.66796875 302.255859375 749.66796875 263.65234375zM412.109375 522.626953125Q375.498046875 559.23828125 375.498046875 611.171875T412.109375 699.7265625Q448.7109375 736.328125 500 736.328125T587.890625 699.697265625Q624.501953125 663.0859375 624.521484375 611.15234375T587.890625 522.626953125Q551.279296875 486.0156250000001 499.345703125 486.0156250000001Q448.720703125 486.015625 412.109375 522.626953125z" />
    <glyph glyph-name="account-box"
      unicode="&#xEA05;"
      horiz-adv-x="1000" d="M32.626953125 967.373046875Q65.25390625 1000 111.845703125 1000H888.154296875Q934.7460937500002 1000 967.373046875 967.373046875T1000 888.154296875V111.845703125Q1000 65.2539062499999 967.373046875 32.626953125T888.154296875 0H111.845703125Q65.25390625 0 32.626953125 32.626953125T0 111.845703125V888.154296875Q0 934.74609375 32.626953125 967.373046875zM166.416015625 166.4453125H833.5546875V222.36328125Q833.5546875 274.3066406250001 770.9765624999999 316.9140625Q719.033203125 352.87109375 635.1562499999999 374.169921875Q560.546875 394.140625 500 394.140625T364.84375 374.169921875Q280.9570312500001 352.8613281249999 229.0234375 316.9140625Q166.4453125 274.306640625 166.4453125 222.36328125zM644.443359375 750.322265625A170.68359375 170.68359375 0 0 1 583.1933593749999 810.91796875A164.267578125 164.267578125 0 0 1 416.748046875 810.91796875A170.54687499999997 170.54687499999997 0 0 1 355.498046875 750.322265625Q332.8515625 712.373046875 332.8515625 667.099609375A162.861328125 162.861328125 0 0 1 355.498046875 583.22265625A165.15625 165.15625 0 0 1 416.044921875 522.67578125Q453.994140625 500.6933593750001 499.267578125 500.0292968750001A158.115234375 158.115234375 0 0 1 583.1640625 522.001953125A168.9453125 168.9453125 0 0 1 644.4140625 583.251953125A162.919921875 162.919921875 0 0 1 667.060546875 667.1484375Q667.119140625 712.373046875 644.47265625 750.322265625z" />
    <glyph glyph-name="account-card-details"
      unicode="&#xEA06;"
      horiz-adv-x="1000" d="M82.919921875 875.126953125H917.080078125Q949.052734375 875.126953125 974.5214843750002 849.6484375T1000 791.2109375V208.7890625Q1000 175.78125 974.521484375 150.390625T917.0800781249998 124.912109375H82.919921875Q50.947265625 124.912109375 25.478515625 150.390625T0 208.7890625V791.2109375Q0 824.169921875 25.478515625 849.609375T82.919921875 875.126953125zM333.662109375 420.576171875Q287.6953125 420.576171875 231.767578125 405.5957031249999Q168.828125 388.6132812499999 129.873046875 361.6503906249999Q82.919921875 330.6640625 82.919921875 291.708984375V249.716796875H583.41796875V291.708984375Q583.41796875 330.673828125 537.4609374999999 361.640625Q497.4902343749999 388.61328125 435.5664062499999 405.5859375Q378.61328125 420.576171875 333.662109375 420.576171875zM333.662109375 750.25390625A122.265625 122.265625 0 0 1 270.72265625 733.271484375A123.9453125 123.9453125 0 0 1 225.2734375000001 687.8125A122.3046875 122.3046875 0 0 1 208.7890625 625.37109375A125 125 0 0 1 225.2734375000001 562.44140625A119.03320312500001 119.03320312500001 0 0 1 270.72265625 516.9921875A125.04882812500001 125.04882812500001 0 0 1 333.662109375 500.5078124999999A122.3046875 122.3046875 0 0 1 396.103515625 516.9921875A123.9453125 123.9453125 0 0 1 441.5625 562.44140625A122.1875 122.1875 0 0 1 458.544921875 625.37109375A119.59960937500001 119.59960937500001 0 0 1 441.5625 687.8125A129.306640625 129.306640625 0 0 1 396.103515625 733.271484375A119.59960937500001 119.59960937500001 0 0 1 333.662109375 750.25390625zM583.4179687500001 750.25390625V708.26171875H917.080078125V750.25390625zM583.4179687500001 666.337890625V625.380859375H917.080078125V666.337890625zM583.4179687500001 583.41796875V541.42578125H875.126953125V583.41796875z" />
    <glyph glyph-name="account-check"
      unicode="&#xEA07;"
      horiz-adv-x="1000" d="M354.365234375 412.021484375Q451.455078125 412.021484375 532.763671875 387.744140625T661.40625 322.8222656249999Q708.740234375 282.1679687499999 708.740234375 234.8437499999999V146.2499999999999H0V234.833984375Q0 282.16796875 47.939453125 322.8125000000001T177.177734375 387.6953125Q258.4765625 412.001953125 354.365234375 412.021484375zM354.365234375 853.76953125Q402.900390625 853.76953125 443.5546875 830.09765625A175.302734375 175.302734375 0 0 0 507.8808593749999 765.771484375Q531.552734375 725.1171875 531.552734375 677.197265625T507.8808593749999 588.603515625A179.88281249999997 179.88281249999997 0 0 0 443.5546875 523.662109375A165.36132812500003 165.36132812500003 0 0 0 354.970703125 500A177.51953125 177.51953125 0 0 0 266.376953125 524.267578125A179.6875 179.6875 0 0 0 201.455078125 588.59375A173.82812500000003 173.82812500000003 0 0 0 201.455078125 765.771484375A179.84375 179.84375 0 0 0 266.376953125 830.078125A171.87499999999997 171.87499999999997 0 0 0 354.365234375 853.76953125zM759.70703125 466.630859375L620.1171875 618.330078125L679.5703125 676.572265625L759.6484375 596.494140625L941.6796875 778.525390625L1000 706.9140625z" />
    <glyph glyph-name="account-circle"
      unicode="&#xEA08;"
      horiz-adv-x="1000" d="M752.08984375 931.73828125Q864.658203125 864.658203125 931.77734375 752.05078125Q1000 635.91796875 1000 500T931.73828125 247.91015625Q864.6582031250001 135.322265625 752.05078125 68.22265625Q635.91796875 0 500 0T247.91015625 68.26171875Q135.322265625 135.3222656249999 68.22265625 247.94921875Q0 364.0625 0 500T68.26171875 752.08984375Q135.322265625 864.658203125 247.94921875 931.77734375Q364.0625 1000 499.39453125 1000Q635.908203125 1000 752.08984375 931.73828125zM673.056640625 184.423828125Q749.70703125 227.5390625 800 301.7578125Q798.798828125 347.24609375 743.7109375000001 385.5859375Q697.001953125 417.96875 621.5625 437.119140625Q554.482421875 455.078125 500 455.078125T378.4375 437.119140625Q302.98828125 417.96875 256.279296875 385.634765625Q201.171875 347.3046875 200 301.7578125A357.8125 357.8125 0 0 1 326.953125 184.384765625Q407.1875000000001 140.0781249999999 499.404296875 140.0781249999999T673.056640625 184.423828125zM424.541015625 829.931640625A153.3203125 153.3203125 0 0 1 370.05859375 774.84375A146.572265625 146.572265625 0 0 1 349.697265625 699.384765625Q349.697265625 658.65234375 370.05859375 624.53125A154.931640625 154.931640625 0 0 1 424.541015625 570.048828125Q458.671875 549.6875 499.39453125 549.6875A146.572265625 146.572265625 0 0 1 574.853515625 570.048828125A153.4765625 153.4765625 0 0 1 629.94140625 624.53125Q650.302734375 658.662109375 650.302734375 699.384765625A146.572265625 146.572265625 0 0 1 629.94140625 774.84375A151.92382812499997 151.92382812499997 0 0 1 574.853515625 829.931640625A146.572265625 146.572265625 0 0 1 499.39453125 850.29296875Q458.671875 850.302734375 424.541015625 829.94140625z" />
    <glyph glyph-name="account-convert"
      unicode="&#xEA09;"
      horiz-adv-x="1000" d="M313.681640625 104.90234375L368.623046875 159.84375L527.470703125 0.9765625L500.5078125 0Q371.6015625 0 258.740234375 61.93359375Q150.83984375 121.85546875 81.923828125 225.771484375Q12.98828125 331.669921875 1.953125 458.544921875H64.931640625Q75.8984375 341.6406249999999 142.8515625 247.7441406249999T313.681640625 104.90234375zM249.74609375 291.708984375Q249.74609375 330.673828125 296.69921875 362.646484375Q335.6640625 389.619140625 398.59375 405.615234375Q454.55078125 420.595703125 500 420.595703125T601.40625 405.615234375Q664.326171875 389.62890625 703.3007812500001 362.646484375Q750.2539062500001 330.673828125 750.2539062500001 291.708984375V249.716796875H249.74609375zM625.380859375 625.380859375A122.22656249999999 122.22656249999999 0 0 0 608.3984375 562.44140625A126.72851562500001 126.72851562500001 0 0 0 562.44140625 516.484375A117.69531250000001 117.69531250000001 0 0 0 500 500A127.92968750000001 127.92968750000001 0 0 0 437.55859375 516.982421875A124.541015625 124.541015625 0 0 0 374.619140625 625.380859375A119.59960937500001 119.59960937500001 0 0 0 391.6015625 687.802734375A127.92968750000001 127.92968750000001 0 0 0 437.55859375 733.26171875A123.2421875 123.2421875 0 0 0 562.4316406250001 733.26171875A128.056640625 128.056640625 0 0 0 608.3984375 687.802734375A119.580078125 119.580078125 0 0 0 625.380859375 625.380859375zM686.318359375 895.107421875L631.376953125 840.166015625L472.529296875 999.0234375L500.498046875 1000Q628.359375 1000 741.259765625 938.06640625Q849.140625 878.125 918.076171875 774.228515625Q987.01171875 668.330078125 998.046875 541.455078125H935.068359375Q924.08203125 657.333984375 856.15234375 753.2421875Q790.205078125 846.162109375 686.318359375 895.09765625z" />
    <glyph glyph-name="account-edit"
      unicode="&#xEA0A;"
      horiz-adv-x="1000" d="M559.736328125 409.39453125L335.56640625 186.572265625V80.537109375H0V191.943359375Q0 253.681640625 60.41015625 304.6875T221.484375 385.224609375Q326.171875 416.083984375 448.3300781250001 416.09375A670.6152343750001 670.6152343750001 0 0 0 559.736328125 409.39453125zM559.736328125 945.625A227.822265625 227.822265625 0 0 0 640.9472656249999 864.423828125Q671.1425781249999 813.41796875 671.162109375 752.333984375T640.9375 639.599609375Q610.7421875 587.890625 559.716796875 558.37890625T447.646484375 528.8671875Q386.572265625 528.8671875 335.556640625 558.388671875T254.3457031250001 639.599609375Q224.150390625 691.26953125 224.150390625 752.34375T254.3457031250001 864.43359375A227.822265625 227.822265625 0 0 0 335.556640625 945.634765625Q386.5625000000001 975.830078125 448.3203125000001 975.849609375Q508.7207031249999 975.83984375 559.716796875 945.625zM448.330078125 24.16015625H562.412109375L902.01171875 363.759765625L786.572265625 479.19921875L448.330078125 139.6484375zM1000 474.4921875A26.123046875 26.123046875 0 0 1 990.595703125 495.3027343749999L919.462890625 567.79296875A33.056640625 33.056640625 0 0 1 897.2949218749999 575.83984375Q884.5312499999999 575.83984375 876.50390625 567.79296875L820.126953125 511.4160156249999L934.21875 395.966796875L990.595703125 452.34375A30.2734375 30.2734375 0 0 1 1000 474.4921875z" />
    <glyph glyph-name="account-key"
      unicode="&#xEA0B;"
      horiz-adv-x="1000" d="M458.544921875 583.41796875V500.498046875H416.552734375V416.5722656249999H333.662109375V500.5078125H242.763671875Q229.765625 463.544921875 197.3046875 440.05859375A120.61523437499999 120.61523437499999 0 0 0 124.8828125 416.62109375A119.59960937500001 119.59960937500001 0 0 0 62.44140625 433.59375A129.16992187500003 129.16992187500003 0 0 0 16.982421875 479.04296875A119.580078125 119.580078125 0 0 0 0 541.455078125A122.25585937499999 122.25585937499999 0 0 0 16.97265625 604.39453125A124.0234375 124.0234375 0 0 0 62.431640625 649.84375A122.314453125 122.314453125 0 0 0 124.873046875 666.337890625A122.529296875 122.529296875 0 0 0 197.265625 643.359375Q229.7265625 620.37109375 242.724609375 583.41796875zM124.873046875 583.41796875Q107.890625 583.41796875 95.400390625 570.91796875T82.919921875 541.455078125A38.69140625 38.69140625 0 0 1 95.400390625 512.490234375A42.236328125 42.236328125 0 0 1 154.345703125 512.490234375A38.69140625 38.69140625 0 0 1 166.826171875 541.455078125Q166.826171875 558.4375 154.345703125 570.927734375T124.873046875 583.41796875zM666.337890625 416.58203125Q728.271484375 416.58203125 802.197265625 398.6035156250001Q886.1132812500001 377.626953125 938.06640625 342.6660156250001Q1000 301.6503906250001 1000 249.7656250000001V166.8457031250001H333.662109375V249.74609375Q333.662109375 301.6894531250001 394.6093750000001 342.646484375Q446.5527343750001 377.607421875 530.46875 398.583984375Q605.380859375 416.5625 666.337890625 416.58203125zM666.337890625 500.5078125000001A165.25390625 165.25390625 0 0 0 582.919921875 522.4609375A159.53125 159.53125 0 0 0 522.470703125 582.91015625Q500.48828125 621.3671875 500.498046875 666.826171875T522.4609375 750.25390625A166.513671875 166.513671875 0 0 0 666.8164062499999 833.173828125Q712.2753906249999 833.173828125 750.2343749999999 810.712890625A169.619140625 169.619140625 0 0 0 810.6640624999999 750.283203125Q833.1249999999999 712.314453125 833.1249999999999 666.865234375A163.388671875 163.388671875 0 0 0 810.6640624999999 582.94921875A168.28125 168.28125 0 0 0 750.2343749999999 522.001953125Q712.28515625 499.4921875 666.337890625 500.5078125z" />
    <glyph glyph-name="account-location"
      unicode="&#xEA0C;"
      horiz-adv-x="1000" d="M900.68359375 972.03125Q928.6523437499998 944.0625 928.6523437499998 904.111328125V237.44140625Q928.6523437499998 198.623046875 900.68359375 170.6640625T832.763671875 142.6953125H643.310546875L499.423828125 0L356.728515625 142.6953125H167.275390625Q127.333984375 142.6953125 99.35546875 170.6640625T71.34765625 237.44140625V904.111328125Q71.34765625 944.052734375 99.31640625 972.03125T167.236328125 1000H832.763671875Q872.71484375 1000 900.68359375 972.03125zM785.95703125 375.56640625Q785.95703125 420.0976562500001 732.3046875000001 456.62109375Q687.783203125 487.451171875 615.87890625 506.8359375Q551.93359375 523.96484375 500 523.974609375T382.98828125 506.8359375Q312.2167968750001 487.421875 267.685546875 456.611328125Q214.033203125 420.0781250000001 214.033203125 375.556640625V333.3203125H785.95703125zM435.546875 825.341796875A125.56640625000001 125.56640625000001 0 0 1 388.671875 778.53515625A130.068359375 130.068359375 0 0 1 388.671875 649.53125A125.56640625000001 125.56640625000001 0 0 1 435.546875 602.734375A130.0390625 130.0390625 0 0 1 564.53125 602.734375A125.56640625000001 125.56640625000001 0 0 1 611.328125 649.541015625A129.97070312500003 129.97070312500003 0 0 1 611.328125 778.544921875A125.56640625000001 125.56640625000001 0 0 1 564.453125 825.341796875A127.92968750000001 127.92968750000001 0 0 1 499.39453125 842.4609375A125.81054687500001 125.81054687500001 0 0 1 435.546875 825.341796875z" />
    <glyph glyph-name="account-minus"
      unicode="&#xEA0D;"
      horiz-adv-x="1000" d="M363.134765625 591.064453125V500.556640625H0V591.064453125zM785.15625 389.306640625Q876.7578125 366.4062499999999 932.373046875 328.2421875Q1000 283.515625 1000 226.826171875V136.3183593749999H272.626953125V226.826171875Q272.626953125 283.5253906249999 340.244140625 328.2421875Q396.943359375 366.40625 488.5449218750001 389.306640625Q569.2382812500001 408.92578125 636.8652343750001 408.935546875Q703.37890625 408.935546875 785.15625 389.306640625zM545.244140625 525.048828125A184.94140624999997 184.94140624999997 0 0 0 479.2773437500001 591.015625Q454.74609375 632.4609375 454.74609375 682.080078125T479.2773437500001 773.14453125A185.04882812500003 185.04882812500003 0 0 0 545.244140625 839.111328125Q586.689453125 863.642578125 636.30859375 863.65234375T727.91015625 839.111328125A179.5703125 179.5703125 0 0 0 793.88671875 773.14453125Q817.8808593750001 731.69921875 817.8808593750001 682.080078125T793.88671875 591.015625A179.47265625000003 179.47265625000003 0 0 0 727.9101562500001 525.048828125A177.373046875 177.373046875 0 0 0 636.8652343750001 500.517578125Q586.689453125 500.546875 545.25390625 525.078125z" />
    <glyph glyph-name="account-multiple-minus"
      unicode="&#xEA0E;"
      horiz-adv-x="1000" d="M333.662109375 479.4921875H0V562.44140625H333.662109375zM643.359375 423.53515625Q706.279296875 407.548828125 745.25390625 381.54296875Q791.2011718749999 350.576171875 791.2109375 312.607421875V228.6914062500001H291.708984375V312.685546875Q291.708984375 350.654296875 337.666015625 381.6210937500001Q376.630859375 407.5976562500001 439.560546875 423.6132812500001Q495.517578125 437.6074218750001 541.455078125 437.6074218750001Q588.3984375 437.568359375 643.359375 423.57421875zM479.013671875 537.4609375A129.23828125 129.23828125 0 0 0 433.59375 582.91015625A119.59960937500001 119.59960937500001 0 0 0 416.611328125 645.3515625A122.265625 122.265625 0 0 0 433.59375 708.291015625A127.92968750000001 127.92968750000001 0 0 0 479.04296875 754.248046875A123.2421875 123.2421875 0 0 0 603.9160156250001 754.248046875A127.92968750000001 127.92968750000001 0 0 0 649.375 708.291015625A122.265625 122.265625 0 0 0 666.357421875 645.3515625A119.59960937500001 119.59960937500001 0 0 0 649.375 582.91015625A129.27734375 129.27734375 0 0 0 603.9160156250001 537.4609375A123.2421875 123.2421875 0 0 0 479.0429687500001 537.4609375zM712.294921875 526.474609375Q749.2578125 580.419921875 749.2578125 645.849609375T712.294921875 765.244140625A123.251953125 123.251953125 0 0 0 812.6953125 754.248046875A126.19140625 126.19140625 0 0 0 874.140625 645.3515625A122.43164062500001 122.43164062500001 0 0 0 857.65625 582.91015625A125.26367187500001 125.26367187500001 0 0 0 812.734375 537.4609375A123.154296875 123.154296875 0 0 0 712.3339843750001 526.474609375zM940.05859375 390.625Q1000 356.630859375 1000 312.685546875V228.76953125H875.126953125V312.685546875Q875.126953125 380.615234375 817.177734375 430.5761718750001Q891.103515625 417.578125 940.05859375 390.625z" />
    <glyph glyph-name="account-multiple-outline"
      unicode="&#xEA0F;"
      horiz-adv-x="1000" d="M825.517578125 438.37890625Q899.66796875 419.82421875 945.4785156250002 389.306640625Q999.9902343750002 352.197265625 1000.009765625 306.435546875V182.109375H0V306.435546875Q0 352.2363281249999 54.53125 389.306640625Q100.33203125 419.84375 174.4921875 438.37890625Q241.0058593750001 454.736328125 295.5859375 454.74609375Q339.1992187500001 454.74609375 393.720703125 442.744140625Q453.681640625 430.7421875 500.60546875 408.935546875Q546.40625 430.7421875 606.38671875 442.744140625Q660.8984375000001 454.74609375 704.5214843750001 454.74609375Q758.984375 454.74609375 825.517578125 438.37890625zM522.353515625 306.435546875Q522.353515625 319.5312499999999 487.4609374999999 338.603515625T403.4765625 370.7714843750001Q346.77734375 386.0351562500001 294.970703125 386.0351562500001T187.548828125 370.7714843750001Q137.373046875 357.6757812500001 102.490234375 338.603515625T67.6171875 306.435546875V249.736328125H522.353515625zM295.52734375 499.4531250000001Q251.89453125 499.4531250000001 215.37109375 521.259765625A161.6015625 161.6015625 0 0 0 157.578125 579.619140625A159.599609375 159.599609375 0 0 0 157.578125 738.798828125A157.49023437500003 157.49023437500003 0 0 0 215.37109375 796.6015625A159.62890624999997 159.62890624999997 0 0 0 374.55078125 796.6015625A161.708984375 161.708984375 0 0 0 432.8906250000001 738.798828125A156.11328125 156.11328125 0 0 0 432.8906250000001 579.619140625A161.6015625 161.6015625 0 0 0 374.55078125 521.81640625A154.47265625 154.47265625 0 0 0 295.44921875 500.5566406250001zM230.634765625 723.544921875Q203.916015625 696.826171875 203.935546875 659.1796875T230.64453125 594.833984375Q257.36328125 568.115234375 294.990234375 568.115234375T359.3359375 594.833984375Q386.0546875 621.552734375 386.0546875 659.1796875T359.3359375 723.505859375Q332.6171875 750.224609375 295.546875 750.224609375Q257.353515625 750.263671875 230.634765625 723.544921875zM704.462890625 499.4433593750001A151.50390625 151.50390625 0 0 0 625.361328125 521.25A165.927734375 165.927734375 0 0 0 567.001953125 579.609375A156.20117187499997 156.20117187499997 0 0 0 567.001953125 738.7890625A161.64062500000003 161.64062500000003 0 0 0 625.361328125 796.591796875A159.599609375 159.599609375 0 0 0 784.541015625 796.591796875A157.529296875 157.529296875 0 0 0 842.34375 738.7890625A159.599609375 159.599609375 0 0 0 842.34375 579.609375A157.42187499999997 157.42187499999997 0 0 0 784.5410156249999 521.806640625Q748.046875 500.537109375 704.47265625 500.546875zM932.3828125 306.435546875Q932.3828125 319.5312499999999 897.490234375 338.603515625T812.4414062499999 370.7714843750001Q756.7773437499999 386.0351562500001 704.4726562499999 386.0351562500001Q637.9394531249999 386.0351562500001 567.0703124999999 362.041015625Q591.0644531249999 335.8593750000001 591.0644531249999 306.42578125V249.7265625H932.3828125zM640.673828125 723.544921875Q613.955078125 696.826171875 613.955078125 659.1796875T640.6738281250001 594.833984375Q667.3925781250001 568.115234375 705.01953125 568.115234375T769.3457031250001 594.833984375Q796.0644531250001 621.552734375 796.0644531250001 659.1796875T769.3457031250001 723.505859375Q742.626953125 750.224609375 704.4628906250001 750.224609375Q667.3828125 750.263671875 640.673828125 723.544921875z" />
    <glyph glyph-name="account-multiple-plus"
      unicode="&#xEA10;"
      horiz-adv-x="1000" d="M333.662109375 479.4921875H208.7890625V353.61328125H124.873046875V479.4921875H0V562.44140625H124.873046875V687.314453125H208.7890625V562.44140625H333.662109375zM643.359375 423.53515625Q706.279296875 407.548828125 745.25390625 381.54296875Q791.2011718749999 350.576171875 791.2109375 312.607421875V228.6914062500001H291.708984375V312.685546875Q291.708984375 350.654296875 337.666015625 381.6210937500001Q376.630859375 407.5976562500001 439.560546875 423.6132812500001Q495.517578125 437.6074218750001 541.455078125 437.6074218750001Q588.3984375 437.568359375 643.359375 423.57421875zM479.013671875 537.4609375A129.23828125 129.23828125 0 0 0 433.59375 582.91015625A119.59960937500001 119.59960937500001 0 0 0 416.611328125 645.3515625A122.265625 122.265625 0 0 0 433.59375 708.291015625A127.92968750000001 127.92968750000001 0 0 0 479.04296875 754.248046875A123.2421875 123.2421875 0 0 0 603.9160156250001 754.248046875A127.92968750000001 127.92968750000001 0 0 0 649.375 708.291015625A122.265625 122.265625 0 0 0 666.357421875 645.3515625A119.59960937500001 119.59960937500001 0 0 0 649.375 582.91015625A129.27734375 129.27734375 0 0 0 603.9160156250001 537.4609375A123.2421875 123.2421875 0 0 0 479.0429687500001 537.4609375zM712.294921875 526.474609375Q749.2578125 580.419921875 749.2578125 645.849609375T712.294921875 765.244140625A123.251953125 123.251953125 0 0 0 812.6953125 754.248046875A126.19140625 126.19140625 0 0 0 874.140625 645.3515625A122.43164062500001 122.43164062500001 0 0 0 857.65625 582.91015625A125.26367187500001 125.26367187500001 0 0 0 812.734375 537.4609375A123.154296875 123.154296875 0 0 0 712.3339843750001 526.474609375zM940.05859375 390.625Q1000 356.630859375 1000 312.685546875V228.76953125H875.126953125V312.685546875Q875.126953125 380.615234375 817.177734375 430.5761718750001Q891.103515625 417.578125 940.05859375 390.625z" />
    <glyph glyph-name="account-multiple"
      unicode="&#xEA11;"
      horiz-adv-x="1000" d="M448.2421875 436.748046875Q527.802734375 416.015625 577.96875 383.310546875Q636.85546875 344.052734375 636.85546875 294.9902343749999V181.572265625H0V294.990234375Q0 344.0527343750001 58.88671875 383.310546875Q107.94921875 416.015625 188.662109375 436.748046875Q259.53125 454.19921875 318.41796875 454.19921875T448.2421875 436.748046875zM249.716796875 563.251953125A135.26367187499997 135.26367187499997 0 0 0 200.107421875 612.861328125Q182.099609375 643.935546875 182.119140625 681.015625A136.50390625 136.50390625 0 0 0 200.107421875 749.7265625A135.947265625 135.947265625 0 0 0 318.4277343750001 818.4375A130.546875 130.546875 0 0 0 386.5820312500001 799.8828125A137.74414062500003 137.74414062500003 0 0 0 453.6523437500001 681.015625Q453.6523437500001 643.90625 435.6640625000001 612.861328125A136.71875 136.71875 0 0 0 386.5917968750001 563.251953125A130.546875 130.546875 0 0 0 318.4375000000001 544.697265625A133.466796875 133.466796875 0 0 0 249.716796875 563.251953125zM613.408203125 563.251953125A141.07421875 141.07421875 0 0 0 563.798828125 612.861328125A130.546875 130.546875 0 0 0 545.244140625 681.015625A133.466796875 133.466796875 0 0 0 563.798828125 749.7265625A139.6484375 139.6484375 0 0 0 613.408203125 799.892578125A130.546875 130.546875 0 0 0 681.5625 818.447265625A135.99609375 135.99609375 0 0 0 799.8925781249999 749.736328125A136.650390625 136.650390625 0 0 0 817.8808593749999 681.025390625Q817.8808593749999 643.916015625 799.8925781249999 612.87109375A135.400390625 135.400390625 0 0 0 750.2636718749999 563.26171875A133.447265625 133.447265625 0 0 0 681.5722656249999 544.70703125A130.595703125 130.595703125 0 0 0 613.408203125 563.251953125zM811.337890625 436.748046875Q892.03125 416.015625 941.11328125 383.310546875Q1000 344.052734375 1000 294.9902343749999V181.572265625H727.373046875V294.990234375Q727.373046875 386.591796875 637.94921875 452.0214843750001Q661.943359375 454.2089843750001 681.572265625 454.2089843750001Q740.44921875 454.208984375 811.337890625 436.748046875z" />
    <glyph glyph-name="account-network"
      unicode="&#xEA12;"
      horiz-adv-x="1000" d="M549.697265625 300.595703125V200.009765625H600.009765625Q620.3515625 200.009765625 635.3222656249999 185.6347656249999T650.302734375 150.908203125H1000V50.322265625H650.302734375Q650.302734375 29.9609375 635.3222656249999 14.990234375T600.009765625 0H399.990234375Q379.62890625 0 364.658203125 14.970703125T349.697265625 50.29296875H0V150.87890625H349.697265625Q349.697265625 171.240234375 364.66796875 185.60546875T400 199.98046875H450.3125V300.56640625H150.888671875V374.78515625Q150.888671875 422.63671875 197.587890625 462.802734375T324.541015625 526.279296875Q404.775390625 549.697265625 500 549.697265625T675.44921875 526.3671875Q755.6835937499999 503.0078125 802.40234375 462.890625T849.12109375 374.873046875V300.654296875zM500.60546875 1000A166.47460937499997 166.47460937499997 0 0 0 587.431640625 976.03515625A177.548828125 177.548828125 0 0 0 650.908203125 911.962890625A170.654296875 170.654296875 0 0 0 674.2675781249999 824.55078125A170.71289062500003 170.71289062500003 0 0 0 650.908203125 737.119140625A172.8515625 172.8515625 0 0 0 587.431640625 673.642578125Q547.294921875 650.283203125 500 650.302734375T412.568359375 673.642578125A172.7734375 172.7734375 0 0 0 349.091796875 737.119140625Q325.732421875 777.236328125 325.7519531250001 824.55078125T349.091796875 911.962890625A177.47070312499997 177.47070312499997 0 0 0 412.568359375 976.03515625Q452.685546875 1000 500.60546875 1000z" />
    <glyph glyph-name="account-off"
      unicode="&#xEA13;"
      horiz-adv-x="1000" d="M546.71875 473.4765625L862.373046875 157.822265625L953.2910156250002 66.923828125L886.357421875 0L728.515625 157.822265625H111.11328125V262.626953125Q111.11328125 310.5859375 150.87890625 352.2656249999999T261.3671875 423.6035156249999Q332.060546875 453.2714843749999 420.44921875 465.9082031249999L46.71875 839.638671875L113.642578125 906.5625zM532.83203125 1000Q589.638671875 1000 637.6171875 971.58203125A214.29687499999997 214.29687499999997 0 0 0 714.013671875 895.205078125Q742.412109375 847.216796875 742.431640625 789.150390625Q742.431640625 713.388671875 693.818359375 655.3125T571.962890625 582.03125L325.76171875 829.55078125Q339.62890625 902.79296875 397.724609375 951.38671875T532.83203125 1000zM953.28125 262.626953125V200.7714843749999L698.2421875 457.03125Q811.875 431.7578125 882.587890625 379.365234375T953.28125 262.626953125z" />
    <glyph glyph-name="account-outline"
      unicode="&#xEA14;"
      horiz-adv-x="1000" d="M703.125 409.287109375Q829.1015625 377.802734375 907.01171875 326.8261718750001Q1000 263.8671875 1000 187.40234375V0H0V187.40234375Q0 263.8574218749999 92.958984375 326.826171875Q170.8984375 377.8125 296.875 409.287109375Q407.79296875 437.79296875 499.23828125 437.79296875Q592.1875 437.79296875 703.125 409.287109375zM317.841796875 293.857421875Q235.3515625 271.34765625 176.89453125 239.86328125T118.4375 187.40234375V118.4375H881.5625V187.40234375Q881.5625 208.37890625 823.0859375 239.86328125T682.16796875 293.857421875Q586.2109375 319.3359375 499.23828125 319.3359375Q413.7890625 319.3359375 317.841796875 293.857421875zM625.17578125 966.259765625A254.46289062499997 254.46289062499997 0 0 0 715.8886718749999 875.56640625Q749.6191406249999 818.59375 749.6289062499999 750.37109375T715.8886718749999 625.17578125A254.306640625 254.306640625 0 0 0 625.17578125 534.482421875Q568.203125 500.76171875 500 500.76171875T374.8046875 534.482421875A254.306640625 254.306640625 0 0 0 284.091796875 625.17578125Q250.361328125 682.1484375 250.361328125 750.37109375T284.091796875 875.56640625A254.46289062499997 254.46289062499997 0 0 0 374.8046875 966.259765625Q431.77734375 1000 499.23828125 1000Q568.203125 1000 625.17578125 966.259765625zM407.05078125 843.330078125Q368.80859375 805.087890625 368.818359375 750.37109375T407.05078125 657.421875Q445.3125 619.140625 500 619.19921875T592.9492187500001 657.431640625Q631.1621093750001 695.64453125 631.181640625 750.380859375T592.9492187500001 843.33984375Q554.7070312500001 881.552734375 499.1992187500001 881.572265625Q445.3125 881.5625 407.05078125 843.330078125z" />
    <glyph glyph-name="account-plus"
      unicode="&#xEA15;"
      horiz-adv-x="1000" d="M363.134765625 591.064453125V500.556640625H226.826171875V363.134765625H136.30859375V500.546875H0V591.064453125H136.30859375V727.373046875H226.8164062500001V591.064453125zM785.15625 389.306640625Q876.7578125 366.4062499999999 932.373046875 328.2421875Q1000 283.515625 1000 226.826171875V136.3183593749999H272.626953125V226.826171875Q272.626953125 283.5253906249999 340.244140625 328.2421875Q396.943359375 366.40625 488.5449218750001 389.306640625Q569.2382812500001 408.92578125 636.8652343750001 408.935546875Q703.37890625 408.935546875 785.15625 389.306640625zM545.244140625 525.048828125A184.94140624999997 184.94140624999997 0 0 0 479.2773437500001 591.015625Q454.74609375 632.4609375 454.74609375 682.080078125T479.2773437500001 773.14453125A185.04882812500003 185.04882812500003 0 0 0 545.244140625 839.111328125Q586.689453125 863.642578125 636.30859375 863.65234375T727.91015625 839.111328125A179.5703125 179.5703125 0 0 0 793.88671875 773.14453125Q817.8808593750001 731.69921875 817.8808593750001 682.080078125T793.88671875 591.015625A179.47265625000003 179.47265625000003 0 0 0 727.9101562500001 525.048828125A177.373046875 177.373046875 0 0 0 636.8652343750001 500.517578125Q586.689453125 500.546875 545.25390625 525.078125z" />
    <glyph glyph-name="account-remove"
      unicode="&#xEA16;"
      horiz-adv-x="1000" d="M164.8046875 611.9140625L262.802734375 711.03515625L328.505859375 645.33203125L230.46875 546.2109375L328.505859375 448.2421875L262.802734375 382.51953125L164.8046875 480.46875L65.703125 382.51953125L0 448.2421875L99.12109375 546.2109375L0 645.322265625L65.703125 711.025390625zM629.1796875 407.01171875Q697.0996093749999 407.01171875 780.6152343749999 386.962890625Q874.1503906249999 363.57421875 930.947265625 324.599609375Q999.98046875 278.92578125 1000 221.083984375V128.61328125H257.236328125V221.044921875Q257.236328125 278.9453125 326.2890625 324.560546875Q384.189453125 363.525390625 477.724609375 386.923828125Q560.126953125 406.9921875 629.1796875 407.01171875zM629.1796875 500.56640625Q577.939453125 500.56640625 535.625 525.615234375A188.857421875 188.857421875 0 0 0 468.2421875 592.998046875Q443.1933593750001 635.322265625 443.1933593750001 685.986328125T468.2421875 778.974609375A188.96484375 188.96484375 0 0 0 535.625 846.357421875Q577.94921875 871.40625 628.61328125 871.4257812499999T722.1484375 846.3574218749999A183.36914062500003 183.36914062500003 0 0 0 789.53125 778.9746093749999Q814.033203125 736.650390625 814.033203125 685.986328125T789.53125 592.9980468749999A183.271484375 183.271484375 0 0 0 722.1484375 525.6152343749999A181.123046875 181.123046875 0 0 0 629.1796875 500.56640625z" />
    <glyph glyph-name="account-search"
      unicode="&#xEA17;"
      horiz-adv-x="1000" d="M371.240234375 1000Q472.65625 1000 557.529296875 949.990234375T692.470703125 814.384765625Q742.4804687500001 728.759765625 742.4804687500001 628.76953125Q742.4804687500001 560.263671875 719.189453125 498.6230468750001A386.81640625 386.81640625 0 0 0 653.4472656250001 386.318359375L669.8730468750001 371.240234375H713.7109375000001L1000 86.2890625L913.7109375 0L628.779296875 286.298828125V330.13671875L613.701171875 346.5625A386.51367187500006 386.51367187500006 0 0 0 501.3964843749999 280.8203125Q439.736328125 257.51953125 371.240234375 257.51953125Q271.220703125 257.51953125 185.625 307.5097656250001T49.990234375 442.451171875Q0 527.34375 0 628.06640625T49.990234375 814.384765625Q100 899.98046875 185.615234375 949.990234375T371.240234375 1000zM371.240234375 371.220703125Q439.716796875 371.220703125 497.265625 404.091796875T589.0625 491.7675781249999Q554.8242187500001 541.07421875 497.2656250000001 570.5371093749999T371.9140625 600Q304.111328125 600 245.888671875 570.537109375T153.41796875 491.7675781250001Q187.65625 436.982421875 245.87890625 404.0917968750001A250.6640625 250.6640625 0 0 1 371.240234375 371.220703125zM371.240234375 884.892578125Q330.126953125 884.892578125 300.68359375 856.11328125T271.23046875 785.556640625Q271.23046875 743.76953125 300.68359375 714.326171875T371.220703125 684.873046875Q412.3046875 684.873046875 441.77734375 714.326171875T471.240234375 785.556640625Q471.240234375 827.34375 441.77734375 856.11328125T371.240234375 884.931640625z" />
    <glyph glyph-name="account-settings-variant"
      unicode="&#xEA18;"
      horiz-adv-x="1000" d="M440.556640625 491.6113281249999A657.98828125 657.98828125 0 0 0 542.3046874999999 465.380859375A312.314453125 312.314453125 0 0 1 497.2070312499999 378.3203125A303.359375 303.359375 0 0 1 481.4453125 281.81640625A297.63671875 297.63671875 0 0 1 484.580078125 237.763671875H0V324.82421875Q0 379.365234375 63.984375 422.373046875Q118.525390625 459.08203125 206.650390625 481.11328125Q284.267578125 500 349.296875 500Q390.21484375 500 440.556640625 491.6113281249999zM437.412109375 913.80859375A178.037109375 178.037109375 0 0 0 500.8886718750001 850.33203125Q524.482421875 810.46875 524.482421875 762.734375T500.87890625 674.6484375A176.630859375 176.630859375 0 0 0 437.40234375 610.654296875Q397.5390625 587.060546875 349.82421875 587.060546875T261.71875 610.654296875A171.34765625 171.34765625 0 0 0 198.2421875 674.6484375Q175.166015625 715.029296875 175.166015625 762.75390625T198.2421875 850.3515625A172.63671875 172.63671875 0 0 0 261.71875 913.828125A170.59570312499997 170.59570312499997 0 0 0 349.296875 937.44140625Q397.548828125 937.412109375 437.412109375 913.80859375zM830.78125 500A9.228515624999998 9.228515624999998 0 0 0 837.6171875 497.3828125000001A14.345703125 14.345703125 0 0 0 841.2890625 490.5468750000001L849.6875 432.87109375A150.595703125 150.595703125 0 0 0 886.3964843750001 411.884765625L940.9472656250002 433.9160156249999Q949.3261718750002 437.05078125 954.6191406250002 428.6718749999999L997.5878906250002 353.1445312499999Q1001.7773437500002 345.7910156249999 995.4980468750002 339.4726562499999L949.3359375000002 302.7636718749999A190.625 190.625 0 0 0 950.3906250000002 281.7773437499999Q950.3906250000002 273.3984374999998 949.3359375000002 259.7558593749999L995.4980468750002 223.0371093749999A10.214843750000002 10.214843750000002 0 0 0 999.6777343750002 216.7480468749998A8.7890625 8.7890625 0 0 0 998.6328125 209.3945312499999L954.580078125 133.8769531249998Q949.3359375 126.5234374999999 940.908203125 128.6328124999998L886.357421875 150.6542968749998Q872.685546875 139.1113281249997 849.6484375 129.6777343749998L841.2499999999999 71.9824218749997A8.466796875 8.466796875 0 0 0 838.0957031249999 65.1464843749997A11.103515624999998 11.103515624999998 0 0 0 830.7617187499999 62.5292968749998H742.666015625A11.11328125 11.11328125 0 0 0 735.3125 65.1464843749997A8.427734375000002 8.427734375000002 0 0 0 732.158203125 71.9824218749997L723.779296875 129.6777343749998A143.369140625 143.369140625 0 0 0 686.015625 150.6542968749998L632.51953125 128.671875A11.9140625 11.9140625 0 0 0 624.638671875 129.189453125A12.6953125 12.6953125 0 0 0 618.876953125 133.916015625L574.82421875 209.43359375A8.7890625 8.7890625 0 0 0 573.76953125 216.787109375A10.1953125 10.1953125 0 0 0 577.9785156249999 223.0761718750001L624.130859375 259.765625A215.12695312499997 215.12695312499997 0 0 0 623.046875 281.25Q623.046875 292.255859375 624.091796875 302.734375L577.94921875 339.443359375Q570.5957031250001 344.6875 574.794921875 353.115234375L618.88671875 428.7109375A12.83203125 12.83203125 0 0 0 624.6484375 433.427734375A12.167968750000002 12.167968750000002 0 0 0 632.529296875 433.955078125L686.025390625 411.9238281250001Q701.7578125 423.4667968750001 723.7890625 432.9101562500001L732.16796875 490.5859375000001A8.02734375 8.02734375 0 0 0 735.83984375 497.4218750000001A12.01171875 12.01171875 0 0 0 742.67578125 500.0390625000001zM740.029296875 327.96875Q720.625 309.08203125 720.634765625 281.806640625T740.029296875 235.1269531250001Q759.43359375 215.7226562500001 786.7089843749999 215.7324218750001T833.3886718749999 235.1269531250001Q852.7929687499999 254.5312500000001 852.8027343749999 281.806640625T833.3886718749999 327.96875Q813.9843749999999 346.8359375000001 786.7285156249999 346.8554687500001T740.029296875 327.96875z" />
    <glyph glyph-name="account-settings"
      unicode="&#xEA19;"
      horiz-adv-x="1000" d="M500.60546875 500Q608.49609375 500 702.041015625 472.421875Q791.953125 446.0546875 845.927734375 400.478515625T899.8828125 299.8046875V200.1953125H100.078125V299.8046875Q100.078125 354.951171875 154.04296875 400.517578125T297.9296875000001 472.4609375Q391.484375 500 499.39453125 500zM250 99.521484375H349.51171875V0H250zM500.60546875 1000Q554.55078125 1000 600.107421875 973.0078125A203.505859375 203.505859375 0 0 0 672.65625 900.478515625Q699.62890625 854.912109375 699.6484374999999 800.3515625T672.65625 699.638671875A197.265625 197.265625 0 0 0 600.107421875 627.08984375Q554.541015625 600.72265625 500 600.72265625T399.873046875 627.08984375A197.265625 197.265625 0 0 0 327.32421875 699.638671875Q300.3515625 745.80078125 300.3515625 800.3515625T327.32421875 900.478515625A203.505859375 203.505859375 0 0 0 399.873046875 973.0078125Q445.439453125 1000 499.39453125 1000zM450.244140625 99.521484375H549.755859375V0H450.244140625zM650.439453125 99.521484375H750V0H650.48828125z" />
    <glyph glyph-name="account-switch"
      unicode="&#xEA1A;"
      horiz-adv-x="1000" d="M314.6484375 641.162109375Q372.841796875 641.162109375 442.880859375 622.841796875Q521.54296875 603.4375 571.1132812499999 571.083984375Q629.306640625 532.275390625 629.306640625 483.7890625V370.68359375H0V483.828125Q0 532.3046875 58.193359375 571.123046875Q106.669921875 603.447265625 186.42578125 622.880859375Q256.455078125 641.162109375 314.6484375 641.162109375zM314.6484375 730.60546875A131.8359375 131.8359375 0 0 0 246.7578125 748.916015625A133.65234375 133.65234375 0 0 0 197.734375 797.939453125Q179.94140625 828.65234375 179.951171875 865.322265625A134.892578125 134.892578125 0 0 0 197.734375 933.212890625A128.525390625 128.525390625 0 0 0 246.7578125 982.255859375A135.02929687500003 135.02929687500003 0 0 0 314.6484375 1000Q351.298828125 1000 382.03125 982.216796875A129.8828125 129.8828125 0 0 0 430.52734375 933.173828125A135.02929687500003 135.02929687500003 0 0 0 448.2421875 865.29296875Q448.2421875 828.642578125 430.458984375 797.91015625A135.1171875 135.1171875 0 0 0 381.962890625 748.88671875A128.994140625 128.994140625 0 0 0 314.6484375 730.60546875zM358.837890625 291.9921875V191.806640625H629.345703125V291.9921875L774.853515625 146.484375L629.31640625 0V101.2890625H358.80859375V0L213.30078125 146.54296875zM673.49609375 730.60546875A129.04296875 129.04296875 0 0 0 606.11328125 748.916015625A139.404296875 139.404296875 0 0 0 557.0898437499999 797.939453125A129.00390625 129.00390625 0 0 0 538.7695312499999 865.322265625A131.8359375 131.8359375 0 0 0 557.0898437499999 933.212890625A133.7890625 133.7890625 0 0 0 606.11328125 982.255859375Q636.845703125 1000 673.486328125 1000A135.02929687500003 135.02929687500003 0 0 0 741.376953125 982.216796875A128.65234375000003 128.65234375000003 0 0 0 790.419921875 933.173828125A135.02929687500003 135.02929687500003 0 0 0 808.203125 865.283203125Q808.203125 828.6328125 790.419921875 797.900390625A133.7890625 133.7890625 0 0 0 741.376953125 748.876953125A131.8359375 131.8359375 0 0 0 673.49609375 730.60546875zM673.49609375 641.162109375Q731.669921875 641.162109375 801.71875 622.841796875Q881.455078125 603.4375 929.951171875 571.083984375Q988.14453125 532.275390625 988.14453125 483.7890625V370.68359375H718.75V483.828125Q718.75 574.345703125 630.380859375 637.919921875z" />
    <glyph glyph-name="account"
      unicode="&#xEA1B;"
      horiz-adv-x="1000" d="M500.76171875 374.8046875Q635.6640625 374.8046875 752.626953125 340.322265625Q865.0488281250001 307.333984375 932.5390625000002 250.37109375T1000.009765625 124.39453125V0H0V124.43359375Q0 193.388671875 67.470703125 250.41015625T247.3828125 340.361328125Q364.31640625 374.8242187499999 499.248046875 374.8437499999999zM500.76171875 1000Q568.2128906249999 1000 625.17578125 966.259765625A254.46289062499997 254.46289062499997 0 0 0 715.8886718749999 875.56640625Q749.6191406249999 818.59375 749.6289062499999 750.37109375T715.8886718749999 624.39453125Q682.158203125 566.650390625 625.17578125 533.681640625T500 500.76171875Q431.77734375 500.76171875 374.8046875 533.73046875T284.091796875 624.443359375Q250.361328125 682.158203125 250.361328125 750.419921875T284.091796875 875.615234375A254.46289062499997 254.46289062499997 0 0 0 374.8046875 966.259765625Q431.77734375 1000 499.23828125 1000z" />
    <glyph glyph-name="adjust"
      unicode="&#xEA1C;"
      horiz-adv-x="1000" d="M751.796875 931.640625Q864.501953125 865.712890625 931.640625 752.998046875Q1000 635.478515625 1000 500T931.640625 248.203125Q864.501953125 135.478515625 751.796875 68.359375Q635.48828125 0 500 0T247.001953125 68.359375Q134.27734375 135.478515625 68.359375 248.203125Q0 364.4921875 0 500T68.359375 752.998046875Q134.287109375 865.693359375 247.001953125 931.640625Q364.501953125 1000 500 1000T751.796875 931.640625zM701.435546875 154.677734375A413.40820312499994 413.40820312499994 0 0 1 845.322265625 298.564453125Q899.267578125 392.080078125 899.287109375 500.60546875T845.322265625 702.63671875A413.662109375 413.662109375 0 0 1 701.435546875 846.5234375Q607.890625 900.46875 499.39453125 900.48828125T297.36328125 846.5234375A413.40820312499994 413.40820312499994 0 0 1 153.4765625 702.63671875Q99.51171875 609.091796875 99.51171875 500.595703125T153.4765625 298.5546875A413.154296875 413.154296875 0 0 1 297.36328125 154.677734375Q390.87890625 100.712890625 500 100.712890625Q607.900390625 100.712890625 701.435546875 154.677734375zM629.4921875 575.576171875A153.70117187499997 153.70117187499997 0 0 1 574.921875 630.732421875Q540.7421875 651.123046875 499.98046875 651.123046875A146.650390625 146.650390625 0 0 1 424.453125 630.732421875A152.099609375 152.099609375 0 0 1 369.296875 575.576171875A146.74804687500003 146.74804687500003 0 0 1 348.916015625 500Q348.916015625 459.21875 369.306640625 425.05859375A153.53515625000003 153.53515625000003 0 0 1 424.4628906250001 370.5078125A146.650390625 146.650390625 0 0 1 500 350.1171875Q540.78125 350.1171875 574.94140625 370.5078125A155.166015625 155.166015625 0 0 1 629.51171875 425.05859375Q649.90234375 459.23828125 649.90234375 500A146.74804687500003 146.74804687500003 0 0 1 629.501953125 575.537109375z" />
    <glyph glyph-name="air-conditioner"
      unicode="&#xEA1D;"
      horiz-adv-x="1000" d="M208.798828125 333.65234375H291.7089843750001Q326.6699218750001 333.65234375 350.6542968750001 309.1796875T374.6289062500001 249.74609375V0H291.71875V82.91015625H208.80859375V0H124.8828125V249.736328125Q124.8828125 284.697265625 149.35546875 309.169921875T208.798828125 333.65234375zM274.736328125 972.001953125Q321.689453125 1008.955078125 371.640625 995.966796875Q418.583984375 984.98046875 454.04296875 934.5703125T501.494140625 812.197265625A96.15234375 96.15234375 0 0 0 552.4414062499999 798.212890625Q595.4101562499999 848.154296875 586.4062499999999 895.1171875Q579.404296875 929.091796875 592.9003906249999 956.552734375T633.857421875 994.970703125Q661.328125 1005.947265625 694.3359375 992.96875Q731.298828125 977.98828125 764.2578125 934.04296875Q801.220703125 887.08984375 788.232421875 837.138671875Q777.24609375 790.166015625 726.796875 754.716796875T604.39453125 707.265625A101.31835937499999 101.31835937499999 0 0 0 590.400390625 655.2734375Q639.35546875 613.28125 686.3085937500001 622.3046875Q720.2636718750001 629.306640625 747.7343750000001 615.810546875T786.201171875 574.853515625Q797.1875 547.392578125 784.248046875 514.423828125Q769.21875 478.515625 725.263671875 444.53125Q678.3105468749999 407.568359375 628.3593749999999 420.5566406250001Q581.4062499999999 431.5429687500001 545.947265625 481.9921875000001T498.49609375 604.375Q470.517578125 605.3515625 447.548828125 618.359375Q404.599609375 568.359375 413.59375 521.484375Q420.576171875 488.515625 407.08984375 460.546875T366.1328125 421.58203125Q338.671875 410.595703125 305.703125 423.583984375Q268.740234375 438.564453125 235.78125 482.529296875Q198.818359375 529.482421875 211.806640625 579.43359375Q222.7734375 626.38671875 273.740234375 662.34375T396.62109375 709.296875A96.044921875 96.044921875 0 0 0 410.60546875 760.244140625Q360.64453125 803.212890625 313.7011718749999 794.208984375Q279.7265624999999 787.20703125 252.265625 800.703125T213.798828125 841.66015625Q202.802734375 869.140625 215.8203125 902.0703125Q230.78125 939.033203125 274.736328125 972.001953125zM208.798828125 249.736328125V166.826171875H291.7089843750001V249.736328125zM538.466796875 333.642578125H625.380859375L502.4999999999999 0H416.5625zM750.244140625 333.642578125H875.1171875V249.736328125H750.244140625V82.91015625H875.1171875V0H750.244140625Q715.2734375 0 690.80078125 24.47265625T666.337890625 82.91015625V249.736328125Q666.337890625 284.697265625 690.80078125 309.169921875T750.244140625 333.65234375z" />
    <glyph glyph-name="airballoon"
      unicode="&#xEA1E;"
      horiz-adv-x="1000" d="M136.30859375 681.572265625Q136.30859375 784.111328125 193.0078125 854.9609375Q242.080078125 916.015625 342.421875 965.107421875Q309.716796875 900.76171875 291.171875 817.890625Q272.6171875 731.73828125 272.6171875 636.865234375Q272.6171875 536.533203125 291.171875 431.845703125Q310.791015625 322.7734375 342.421875 262.8125Q284.62890625 291.1328125 234.47265625 365.3515625Q189.74609375 432.958984375 162.490234375 522.3828125Q136.298828125 608.505859375 136.30859375 681.572265625zM500.5468749999999 1000A364.98046875 364.98046875 0 0 0 593.2324218749999 988.0078125Q633.583984375 933.4765625 657.5781249999999 841.865234375Q681.572265625 747.001953125 681.572265625 636.85546875A1031.8750000000002 1031.8750000000002 0 0 0 669.5703125 483.0859375Q659.74609375 416.552734375 636.865234375 318.41796875Q636.865234375 280.2539062499999 610.146484375 253.5351562499999T545.2539062499999 226.8164062499999H454.74609375Q416.5625 226.8164062499999 389.8535156250001 253.5351562499999T363.134765625 318.41796875Q340.2343750000001 416.5625 330.4296875 483.0859375A1030.048828125 1030.048828125 0 0 0 318.427734375 636.85546875Q318.427734375 747.001953125 342.421875 841.865234375Q366.416015625 933.466796875 406.767578125 988.0078125A364.90234375000006 364.90234375000006 0 0 0 499.453125 1000zM454.7460937499999 0Q416.5625 0 389.853515625 26.71875T363.134765625 90.5078125000001V182.109375H636.865234375V90.5078125000001Q636.865234375 53.3984375000001 610.146484375 26.7187500000001T545.25390625 0zM863.69140625 681.572265625Q863.69140625 608.49609375 837.51953125 522.392578125Q810.244140625 432.958984375 765.537109375 365.361328125Q715.361328125 291.142578125 657.587890625 262.822265625Q689.19921875 322.783203125 708.837890625 431.85546875Q727.392578125 536.54296875 727.392578125 636.875Q727.392578125 731.73828125 708.837890625 817.900390625Q690.283203125 900.76171875 657.587890625 965.1171875Q757.890625 916.015625 806.982421875 854.9609375Q863.69140625 784.072265625 863.69140625 681.572265625z" />
    <glyph glyph-name="airplane-landing"
      unicode="&#xEA1F;"
      horiz-adv-x="1000" d="M0.009765625 105.927734375H999.990234375V0H0.009765625V105.927734375zM606.5625 345.517578125L886.513671875 271.1328125Q918.0371093749998 262.34375 946.396484375 278.69140625T982.978515625 326.611328125Q991.171875 358.134765625 974.7851562500002 386.5136718750001T926.865234375 423.7109375000001L648.173828125 498.1152343750001L503.154296875 972.255859375L401.005859375 1000V563.681640625L139.98046875 634.296875L90.8203125 755.361328125L15.15625 776.845703125V504.4140625L378.33984375 407.3046874999999z" />
    <glyph glyph-name="airplane-off"
      unicode="&#xEA20;"
      horiz-adv-x="1000" d="M138.3203125 899.4140625L923.9453125 113.779296875L860.46875 50.302734375L574.21875 336.5234375V150.888671875L674.8046875 75.44921875V0L500 50.29296875L325.1953125 0V75.458984375L424.599609375 150.8984375V425.146484375L25.751953125 300.595703125V399.990234375L323.9453125 586.826171875L74.84375 835.9375zM974.2578125 400V300.595703125L816.171875 349.697265625L424.5703125 741.298828125V924.541015625Q424.5703125 955.673828125 446.71875 977.83203125T500 1000Q531.1328125 1000 552.734375 977.83203125T574.21875 924.541015625V650.302734375z" />
    <glyph glyph-name="airplane-takeoff"
      unicode="&#xEA21;"
      horiz-adv-x="1000" d="M997.7734375 630.634765625Q989.4921875 660.185546875 962.880859375 675.556640625T906.73828125 682.6171875L644.287109375 612.900390625L305.009765625 929.6875L209.23828125 904.892578125L413.759765625 551.376953125L167.861328125 485.21484375L70.927734375 562.060546875L0 541.9921875L127.666015625 320.8984375L944.560546875 539.6484375Q974.111328125 547.9296875 989.482421875 574.521484375T997.7734375 630.634765625zM31.923828125 169.5703125H969.3847656250002V70.2734375H31.9238281250001V169.5703125000001z" />
    <glyph glyph-name="airplane"
      unicode="&#xEA22;"
      horiz-adv-x="1000" d="M574.931640625 424.462890625V149.8828125L675.6640625 74.35546875V0L500.595703125 49.16015625L325.537109375 0V74.345703125L425.05859375 149.873046875V424.462890625L24.580078125 299.8046875V399.27734375L425.048828125 649.8828125V924.453125Q425.048828125 955.625 447.2265625 977.8125T500.595703125 1000Q531.767578125 1000 553.330078125 977.8125T574.912109375 924.453125V649.8828125L975.4003906250002 399.27734375V299.8046875z" />
    <glyph glyph-name="airplay"
      unicode="&#xEA23;"
      horiz-adv-x="1000" d="M973.28125 905.6640625Q1000 878.90625 1000 840.8203125V295.52734375Q1000 257.36328125 973.28125 230.6445312500001T909.4921874999998 203.92578125H727.373046875V295.52734375H909.4921875V840.8203125H90.5078125V295.52734375H272.626953125V203.92578125H90.5078125Q53.3984375 203.92578125 26.71875 230.6445312500001T0 295.52734375V840.8203125Q0 878.90625 26.71875 905.6640625T90.5078125 932.3828125H909.4921875Q946.552734375 932.3828125 973.28125 905.6640625zM500.5468749999999 341.328125L773.173828125 67.6171875H226.826171875z" />
    <glyph glyph-name="alarm-check"
      unicode="&#xEA24;"
      horiz-adv-x="1000" d="M64.287109375 733.33984375L0 809.521484375L228.57421875 1000L292.8515625 924.990234375zM722.65625 833.33984375Q823.828125 773.76953125 883.3691406249999 672.6171875Q944.0722656249998 569.1015625 944.0820312499998 447.6171875T883.33984375 221.42578125Q823.798828125 120.234375 722.65625 61.904296875Q617.8515625 0 496.42578125 0T271.42578125 61.904296875Q170.234375 120.244140625 110.712890625 221.42578125Q49.98046875 326.171875 50 447.607421875T110.712890625 672.607421875Q170.224609375 773.798828125 271.42578125 833.330078125Q376.171875 894.04296875 497.626953125 894.052734375Q617.861328125 894.052734375 722.65625 833.33984375zM672.6171875 147.6171875Q751.201171875 192.8320312499999 797.6171875 271.416015625Q844.052734375 352.3632812499999 844.052734375 447.021484375T797.6171875 622.607421875A349.41406250000006 349.41406250000006 0 0 1 672.6171875 747.607421875Q591.66015625 795.224609375 497.0703125 795.244140625T321.484375 747.6171875A349.296875 349.296875 0 0 1 196.484375 622.6171875Q150.048828125 541.669921875 150.048828125 447.03125T196.484375 271.42578125Q242.900390625 192.841796875 321.484375 147.6269531250001Q402.34375 99.990234375 497.626953125 100Q591.669921875 100 672.6171875 147.6171875zM669.052734375 616.66015625L721.42578125 564.287109375L423.828125 266.669921875L266.669921875 424.990234375L319.04296875 477.3828125L424.990234375 371.435546875zM929.794921875 733.33984375L701.171875 924.990234375L765.46875 1000L994.0429687500002 808.330078125z" />
    <glyph glyph-name="alarm-multiple"
      unicode="&#xEA25;"
      horiz-adv-x="1000" d="M0 401.826171875A378.984375 378.984375 0 0 0 37.666015625 567.3828125A357.87109375 357.87109375 0 0 0 138.125 695.205078125A464.16992187500006 464.16992187500006 0 0 1 94.7265625 497.7246093749999L98.154296875 442.919921875L94.7265625 401.826171875Q94.7265625 321.9140625 135.830078125 254.5703125000001T244.228515625 150.703125Q341.259765625 59.3554687500001 470.2539062499999 31.97265625A361.81640625 361.81640625 0 0 0 380.13671875 20.5078125Q277.392578125 20.5078125 188.359375 73.017578125Q101.5625 123.30078125 51.376953125 210.048828125Q0 297.939453125 0 401.826171875zM394.98046875 913.251953125L197.5 748.857421875L142.6953125 813.935546875L340.185546875 979.4921875zM570.76171875 877.861328125Q674.6484375 877.861328125 763.69140625 826.484375Q849.296875 775.107421875 899.541015625 689.453125Q952.041015625 600.400390625 952.05078125 497.0703125T899.541015625 304.6875Q849.306640625 219.1796875 763.671875 167.8125Q674.619140625 116.435546875 571.2890625 116.435546875T378.90625 167.8125Q292.138671875 219.1699218750001 241.923828125 304.794921875Q190.546875 393.828125 190.546875 497.177734375T241.9238281250001 689.560546875Q292.158203125 775.15625 378.90625 826.54296875Q468.02734375 877.841796875 570.771484375 877.861328125zM570.76171875 783.134765625Q493.14453125 783.134765625 427.5097656250001 744.31640625A287.841796875 287.841796875 0 0 1 323.6230468750001 639.82421875Q285.37109375 574.21875 285.380859375 497.1484375000001T323.6328125 354.4921875A287.7734375 287.7734375 0 0 1 427.51953125 250Q493.1445312499999 211.181640625 570.771484375 211.19140625T714.04296875 250A287.98828124999994 287.98828124999994 0 0 1 817.919921875 354.4921875Q856.1621093749999 420.1171875 856.1621093749999 497.1875T817.919921875 639.84375A288.0859375 288.0859375 0 0 1 714.033203125 744.3359375Q648.4375 783.10546875 570.771484375 783.10546875zM523.9746093750001 711.2109375H594.7265625V495.4296875000001L747.71484375 425.78125L718.02734375 360.72265625L523.974609375 449.775390625zM1000 813.935546875L944.0625 748.857421875L746.58203125 913.251953125L802.51953125 979.4921875z" />
    <glyph glyph-name="alarm-off"
      unicode="&#xEA26;"
      horiz-adv-x="1000" d="M968.193359375 67.724609375L905.771484375 5.3027343750001L797.373046875 113.7011718750001A418.30078124999994 418.30078124999994 0 0 0 665.439453125 34.7753906250001A426.84570312499994 426.84570312499994 0 0 0 508.798828125 5.3320312500001Q387.470703125 5.3320312500001 284.990234375 66.5722656250002Q184.912109375 124.267578125 126.025390625 224.375Q65.947265625 328.017578125 65.95703125 448.18359375A426.61132812500006 426.61132812500006 0 0 0 95.41015625 604.82421875A418.26171875000006 418.26171875000006 0 0 0 174.31640625 736.7578125L135.44921875 776.796875L80.078125 730.869140625L10.60546875 800.3515625L64.78515625 846.25L0 911.07421875L62.421875 973.49609375zM243.818359375 667.255859375A332.880859375 332.880859375 0 0 1 185.546875 565.95703125A341.220703125 341.220703125 0 0 1 164.94140625 448.18359375Q164.94140625 353.9257812500001 210.83984375 273.8476562500001Q256.73828125 196.1035156250001 334.521484375 151.357421875Q414.599609375 104.228515625 508.8476562499999 104.23828125A336.25 336.25 0 0 1 626.03515625 124.84375A350.703125 350.703125 0 0 1 727.9296875 183.1542968750001zM270.908203125 891.044921875L200.1953125 960.546875L242.5976562500001 994.7265625L313.271484375 925.234375zM389.873046875 770.927734375L315.654296875 845.146484375Q407.51953125 889.8828125 508.8281249999999 889.90234375Q627.7929687499999 889.90234375 731.484375 829.833984375Q831.58203125 770.927734375 890.4882812499999 670.810546875Q950.52734375 568.359375 950.52734375 448.18359375Q950.52734375 346.884765625 905.771484375 255.0097656250001L831.552734375 330.3906250000001Q851.5625 389.267578125 851.5625 448.18359375Q851.5625 541.23046875 805.6640625 621.318359375A345.703125 345.703125 0 0 1 681.97265625 744.990234375Q601.89453125 792.08984375 508.8378906250001 792.109375Q448.75 792.109375 389.873046875 770.908203125zM936.3867187499998 730.888671875L710.25390625 920.48828125L773.84765625 994.70703125L1000 805.05859375z" />
    <glyph glyph-name="alarm-plus"
      unicode="&#xEA27;"
      horiz-adv-x="1000" d="M67.265625 733.33984375L2.9296875 809.521484375L231.552734375 1000L295.830078125 924.990234375zM725.5859375 833.33984375Q826.7578125 773.76953125 886.2988281249999 672.6171875Q947.0019531249998 569.1015625 947.0117187499998 447.6171875T886.30859375 221.42578125Q826.77734375 120.234375 725.5859375 61.904296875Q620.830078125 0 499.39453125 0T274.4140625 61.904296875Q173.203125 120.244140625 113.69140625 221.42578125Q52.958984375 326.171875 52.978515625 447.607421875T113.69140625 672.607421875Q173.203125 773.80859375 274.4140625 833.33984375Q379.169921875 894.04296875 500.615234375 894.052734375Q620.83984375 894.052734375 725.5859375 833.33984375zM675.5859375 147.6171875Q754.169921875 192.8320312499999 800.5859375 271.416015625Q847.0214843749999 352.3632812499999 847.0214843749999 447.021484375T800.5859375 622.607421875A349.41406250000006 349.41406250000006 0 0 1 675.5859375 747.607421875Q594.638671875 795.224609375 500 795.244140625T324.4140625 747.6171875A349.296875 349.296875 0 0 1 199.4140625 622.6171875Q152.978515625 541.669921875 152.978515625 447.03125T199.4140625 271.42578125Q245.830078125 192.841796875 324.4140625 147.6269531250001Q405.341796875 100.0000000000001 500.60546875 100.0000000000001Q594.6484375 100 675.5859375 147.6171875zM549.39453125 497.6269531250001H698.2421875V397.6171875H549.39453125V248.80859375H450.60546875V397.6171875H301.7578125V497.6269531250001H450.5859375V646.435546875H549.39453125zM932.734375 733.33984375L704.21875 924.990234375L768.447265625 1000L997.0703125 808.330078125z" />
    <glyph glyph-name="alarm-snooze"
      unicode="&#xEA28;"
      horiz-adv-x="1000" d="M67.265625 733.33984375L2.9296875 809.521484375L231.552734375 1000L295.830078125 924.990234375zM725.5859375 833.33984375Q826.7578125 773.76953125 886.2988281249999 672.6171875Q947.0019531249998 569.1015625 947.0117187499998 447.6171875T886.30859375 221.42578125Q826.77734375 120.234375 725.5859375 61.904296875Q620.830078125 0 499.39453125 0T274.4140625 61.904296875Q173.203125 120.244140625 113.69140625 221.42578125Q52.958984375 326.171875 52.978515625 447.607421875T113.69140625 672.607421875Q173.203125 773.80859375 274.4140625 833.33984375Q379.169921875 894.04296875 500.615234375 894.052734375Q620.83984375 894.052734375 725.5859375 833.33984375zM675.5859375 147.6171875Q754.169921875 192.8320312499999 800.5859375 271.416015625Q847.0214843749999 352.3632812499999 847.0214843749999 447.021484375T800.5859375 622.607421875A349.41406250000006 349.41406250000006 0 0 1 675.5859375 747.607421875Q594.638671875 795.224609375 500 795.244140625T324.4140625 747.6171875A349.296875 349.296875 0 0 1 199.4140625 622.6171875Q152.978515625 541.669921875 152.978515625 447.03125T199.4140625 271.42578125Q245.830078125 192.841796875 324.4140625 147.6269531250001Q405.341796875 100.0000000000001 500.60546875 100.0000000000001Q594.6484375 100 675.5859375 147.6171875zM350.5859375 646.435546875H649.4140625V557.138671875L468.45703125 347.65625H649.4140625V248.80859375H350.5859375V338.10546875L531.54296875 546.42578125H350.5859375zM932.734375 733.349609375L704.21875 925L768.447265625 1000L997.0703125 808.330078125z" />
    <glyph glyph-name="alarm"
      unicode="&#xEA29;"
      horiz-adv-x="1000" d="M67.265625 733.33984375L2.9296875 809.521484375L231.552734375 1000L295.830078125 924.990234375zM725.5859375 833.33984375Q826.7578125 773.76953125 886.2988281249999 672.6171875Q947.0019531249998 569.1015625 947.0117187499998 447.6171875T886.30859375 221.42578125Q826.77734375 120.234375 725.5859375 61.904296875Q620.830078125 0 499.39453125 0T274.4140625 61.904296875Q173.203125 120.244140625 113.69140625 221.42578125Q52.958984375 326.171875 52.978515625 447.607421875T113.69140625 672.607421875Q173.203125 773.80859375 274.4140625 833.33984375Q379.169921875 894.04296875 500.615234375 894.052734375Q620.83984375 894.052734375 725.5859375 833.33984375zM675.5859375 147.6171875Q754.169921875 192.8320312499999 800.5859375 271.416015625Q847.0214843749999 352.3632812499999 847.0214843749999 447.021484375T800.5859375 622.607421875A349.41406250000006 349.41406250000006 0 0 1 675.5859375 747.607421875Q594.638671875 795.224609375 500 795.244140625T324.4140625 747.6171875A349.296875 349.296875 0 0 1 199.4140625 622.6171875Q152.978515625 541.669921875 152.978515625 447.03125T199.4140625 271.42578125Q245.830078125 192.841796875 324.4140625 147.6269531250001Q405.341796875 100.0000000000001 500.60546875 100.0000000000001Q594.6484375 100 675.5859375 147.6171875zM524.4140625 434.5703125L723.212890625 317.861328125L686.298828125 255.95703125L450.60546875 397.6171875V695.244140625H524.4140625zM932.744140625 733.3984375L704.228515625 925.048828125L768.447265625 1000L997.0703125 808.330078125z" />
    <glyph glyph-name="album"
      unicode="&#xEA2A;"
      horiz-adv-x="1000" d="M752.08984375 931.73828125Q864.658203125 864.658203125 931.77734375 752.05078125Q1000 635.91796875 1000 500T931.73828125 247.91015625Q864.6582031250001 135.322265625 752.05078125 68.22265625Q635.91796875 0 500 0T247.91015625 68.26171875Q135.322265625 135.3222656249999 68.22265625 247.94921875Q0 364.0625 0 500T68.26171875 752.08984375Q135.322265625 864.658203125 247.94921875 931.77734375Q364.0625 1000 500.60546875 1000Q635.91796875 1000 752.08984375 931.73828125zM499.39453125 275.48828125Q561.669921875 275.48828125 613.173828125 305.419921875A221.357421875 221.357421875 0 0 1 694.599609375 386.865234375Q724.53125 438.30078125 724.55078125 500T694.599609375 613.173828125A221.42578125000003 221.42578125000003 0 0 1 613.173828125 694.599609375Q561.669921875 724.53125 500 724.55078125T386.826171875 694.599609375A221.357421875 221.357421875 0 0 1 305.3808593750001 613.173828125Q275.44921875 561.669921875 275.44921875 500T305.380859375 386.826171875A221.2890625 221.2890625 0 0 1 386.826171875 305.380859375Q438.30078125 275.4492187500001 500.60546875 275.4492187500001zM535.3125 535.3515625Q549.6875 520.9765625 549.6875 500.0390625000001T535.3125 464.7070312500001Q520.9375 450.29296875 500 450.302734375T464.66796875 464.66796875Q450.29296875 479.04296875 450.302734375 500T464.66796875 535.3125Q479.04296875 549.6875 500.60546875 549.6875A47.28515625 47.28515625 0 0 0 535.3125 535.3125z" />
    <glyph glyph-name="alert-box"
      unicode="&#xEA2B;"
      horiz-adv-x="1000" d="M111.845703125 1000H888.154296875Q934.7460937500002 1000 967.373046875 967.373046875T1000 888.154296875V111.845703125Q1000 65.2539062499999 967.373046875 32.626953125T888.154296875 0H111.845703125Q65.25390625 0 32.626953125 32.626953125T0 111.845703125V888.154296875Q0 934.74609375 32.626953125 967.373046875T111.845703125 1000zM555.205078125 444.74609375V777.63671875H444.74609375V444.74609375zM555.205078125 222.3632812499999V332.880859375H444.74609375V222.36328125z" />
    <glyph glyph-name="alert-circle-outline"
      unicode="&#xEA2C;"
      horiz-adv-x="1000" d="M752.08984375 931.73828125Q864.658203125 864.658203125 931.77734375 752.05078125Q1000 635.91796875 1000 500T931.73828125 247.91015625Q864.6582031250001 135.322265625 752.05078125 68.22265625Q635.91796875 0 500 0T247.91015625 68.26171875Q134.12109375 135.3222656249999 68.22265625 247.94921875Q0 364.0625 0 500T68.26171875 752.08984375Q134.111328125 864.658203125 247.94921875 931.77734375Q364.0625 1000 499.39453125 1000Q635.908203125 1000 752.08984375 931.73828125zM701.796875 154.4921875A412.919921875 412.919921875 0 0 1 845.5078125 298.203125Q899.4140625 391.6015625 899.4140625 500T845.5078125 701.796875A413.16406249999994 413.16406249999994 0 0 1 701.796875 845.5078125Q608.3984375 899.4140625 500 899.4140625T298.203125 845.5078125A412.919921875 412.919921875 0 0 1 154.4921875 701.796875Q100.5859375 608.3984375 100.5859375 500T154.4921875 298.203125A412.66601562499994 412.66601562499994 0 0 1 298.203125 154.4921875Q391.6015625 100.5859375 500.60546875 100.5859375Q608.3984375 100.5859375 701.796875 154.4921875zM450.302734375 450.302734375H549.697265625V749.70703125H450.302734375zM450.302734375 250.29296875H549.697265625V349.697265625H450.302734375z" />
    <glyph glyph-name="alert-circle"
      unicode="&#xEA2D;"
      horiz-adv-x="1000" d="M752.08984375 931.142578125Q864.658203125 864.0625 931.77734375 751.455078125Q1000.0390625 635.244140625 1000.0390625 499.365234375T931.73828125 247.3046875Q864.6582031250001 134.716796875 752.05078125 67.6171875Q635.83984375 0.537109375 499.9609375000001 0.556640625T247.91015625 67.65625Q135.322265625 134.7167968749999 68.22265625 247.34375Q0 363.45703125 0 499.404296875T68.26171875 751.494140625Q135.322265625 864.0625 247.94921875 931.181640625Q364.0625 999.404296875 499.39453125 999.404296875Q635.908203125 999.404296875 752.08984375 931.142578125zM549.697265625 749.111328125H450.302734375V449.70703125H549.697265625zM549.697265625 349.1015625H450.302734375V249.697265625H549.697265625z" />
    <glyph glyph-name="alert-decagram"
      unicode="&#xEA2E;"
      horiz-adv-x="1000" d="M889.853515625 374.0234375L905.1171875 206.0546875L740.44921875 168.9453125L654.296875 23.994140625L500.5468749999999 90.5078125L345.703125 23.994140625L259.55078125 167.96875L94.873046875 206.103515625L110.13671875 374.072265625L0 500.546875L110.146484375 627.05078125L94.873046875 793.896484375L259.541015625 831.005859375L345.703125 976.005859375L500.5468749999999 909.4921875L654.296875 976.005859375L740.44921875 830.966796875L905.1171875 793.857421875L889.853515625 625.9765625L1000 500.546875zM545.25390625 727.373046875H454.74609375V454.74609375H545.244140625zM545.25390625 363.1152343749999H454.74609375V272.6074218749999H545.244140625z" />
    <glyph glyph-name="alert-octagon"
      unicode="&#xEA2F;"
      horiz-adv-x="1000" d="M1000 707.03125V292.96875L707.03125 0H292.96875L0 292.96875V707.03125L292.96875 1000H707.03125zM551.25 227.021484375Q572.5585937500001 247.646484375 572.5683593750001 277.6171875T551.25 328.88671875Q529.94140625 350.185546875 500 350.1953125T448.73046875 328.876953125Q427.421875 307.5683593749999 427.431640625 277.607421875T448.73046875 227.01171875Q470.0390625 206.38671875 499.326171875 206.38671875Q529.94140625 206.396484375 551.25 227.021484375zM555.25390625 777.63671875H444.74609375V444.74609375H555.25390625z" />
    <glyph glyph-name="alert-octagram"
      unicode="&#xEA30;"
      horiz-adv-x="1000" d="M0 292.5390625L85.673828125 500.615234375L0 707.4609375L206.85546875 793.134765625L292.5390625 1000L500.615234375 914.326171875L707.4609375 1000L793.1347656250001 793.14453125L1000 707.4609375L914.326171875 500.615234375L1000 292.5390625L793.14453125 206.85546875L707.4609375 0L500.615234375 85.673828125L292.5390625 0L206.85546875 206.85546875zM550.78125 449.21875V755.205078125H449.21875V449.21875zM550.78125 244.794921875V347.65625H449.21875V244.82421875z" />
    <glyph glyph-name="alert-outline"
      unicode="&#xEA31;"
      horiz-adv-x="1000" d="M1000 68.154296875H0L500.5468749999999 931.845703125zM157.03125 159.7558593749999H842.96875L500.5468749999999 750.8203125zM545.25390625 568.7109375V386.58203125H454.74609375V568.7109375zM545.25390625 296.0742187500001V204.4726562500001H454.74609375V296.0742187500001z" />
    <glyph glyph-name="alert"
      unicode="&#xEA32;"
      horiz-adv-x="1000" d="M500.5468749999999 932.3828125L1000 67.6171875H0zM545.2441406249999 568.125H454.74609375V386.03515625H545.244140625zM545.2441406249999 295.4882812499999H454.74609375V203.88671875H545.244140625z" />
    <glyph glyph-name="all-inclusive"
      unicode="&#xEA33;"
      horiz-adv-x="1000" d="M887.607421875 694.3359375A225.859375 225.859375 0 0 0 969.53125 612.919921875Q1000 561.42578125 1000 500.48828125T969.53125 388.10546875A225.859375 225.859375 0 0 0 887.607421875 306.640625Q836.15234375 276.6796875 775.2148437499999 276.6796875A231.6796875 231.6796875 0 0 0 688.7890624999999 293.1640625A215.13671875000003 215.13671875000003 0 0 0 615.380859375 341.6113281250001L562.431640625 388.5644531250001L625.37109375 444.5019531250001L673.3203125 401.5332031250001Q716.2890625 359.5410156250001 775.21484375 359.5410156250001A140.01953125 140.01953125 0 0 1 845.64453125 378.017578125A140.41992187499997 140.41992187499997 0 0 1 845.64453125 621.77734375A140.03906250000003 140.03906250000003 0 0 1 775.21484375 640.263671875A141.6015625 141.6015625 0 0 1 720.78125 629.8828125A138.23242187500003 138.23242187500003 0 0 1 675.3320312500001 599.4140625L381.6210937500001 339.6484375A202.8125 202.8125 0 0 0 310.6835937500001 292.1972656249999A227.80273437500003 227.80273437500003 0 0 0 224.7460937500001 275.7128906249999Q163.7988281250001 275.7128906249999 112.3535156250001 306.181640625A229.677734375 229.677734375 0 0 0 30.46875 388.10546875Q0 439.55078125 0 500T30.46875 611.884765625A229.81445312500003 229.81445312500003 0 0 0 112.392578125 693.80859375Q163.84765625 724.267578125 224.78515625 724.27734375A225.80078125000003 225.80078125000003 0 0 0 311.19140625 707.294921875A221.748046875 221.748046875 0 0 0 384.6093750000001 658.349609375L436.5234375 612.392578125L373.623046875 556.4453125L326.669921875 598.4375Q283.701171875 640.4296875 224.775390625 640.4296875A139.97070312500003 139.97070312500003 0 0 1 154.345703125 621.943359375A140.41992187499997 140.41992187499997 0 0 1 154.345703125 378.18359375A139.95117187500003 139.95117187500003 0 0 1 224.775390625 359.70703125A141.484375 141.484375 0 0 1 279.21875 370.1171875A138.173828125 138.173828125 0 0 1 324.6679687500001 400.5859375L618.37890625 660.3515625A202.998046875 202.998046875 0 0 0 689.306640625 707.802734375A228.05664062500003 228.05664062500003 0 0 0 775.244140625 724.287109375Q836.15234375 724.27734375 887.607421875 694.3359375z" />
    <glyph glyph-name="alpha"
      unicode="&#xEA34;"
      horiz-adv-x="1000" d="M998.046875 79.716796875Q940.9375 61.97265625 897.65625 62.001953125Q750.009765625 62.001953125 698.8574218750001 280.5078125H694.9511718750001Q572.8808593750001 44.2578125 354.4140625000001 44.287109375Q192.9785156250001 44.287109375 96.5234375000001 166.357421875T0 475.400390625Q0 687.978515625 110.234375 821.85546875T407.4609375 955.72265625Q509.8144531249999 955.72265625 588.564453125 899.609375T708.681640625 741.142578125H712.587890625L769.66796875 937.998046875H980.322265625L805.107421875 502.9296875Q834.62890625 349.35546875 867.109375 293.271484375T950.7812499999998 237.1582031249999Q978.330078125 237.1582031249999 1000.009765625 247.0214843749999zM649.599609375 508.84765625Q622.01171875 648.623046875 565.927734375 723.427734375T431.09375 798.22265625Q330.673828125 798.22265625 270.6640625 707.666015625T210.625 483.271484375Q210.625 365.107421875 262.7832031250001 283.45703125T401.5722656250001 201.77734375Q476.3476562500001 201.77734375 537.373046875 271.650390625T637.79296875 475.400390625z" />
    <glyph glyph-name="alphabetical"
      unicode="&#xEA35;"
      horiz-adv-x="1000" d="M200 549.697265625Q241.904296875 549.697265625 271.2890625 520.400390625T300.5859375 450.361328125V250.29296875H100.5859375Q58.681640625 250.29296875 29.296875 279.58984375T0 349.697265625V450.283203125Q0 490.986328125 29.296875 520.322265625T100.5859375 549.619140625zM100.5859375 450.302734375V349.716796875H200V450.302734375zM500.60546875 749.70703125V549.697265625H600.009765625Q640.7128906249999 549.697265625 670.068359375 520.400390625T699.365234375 450.361328125V349.775390625Q699.365234375 309.0429687499999 670.068359375 279.716796875T600.009765625 250.419921875H500.60546875Q458.671875 250.419921875 429.31640625 279.716796875T400.01953125 349.775390625V749.70703125zM500.60546875 349.6972656249999H600.009765625V450.2832031249999H500.60546875zM899.4140625 450.302734375V349.716796875H1000V250.29296875H899.4140625Q858.681640625 250.29296875 829.345703125 279.58984375T800.048828125 349.6484375V450.234375Q800.048828125 490.9374999999999 829.345703125 520.2734375T899.4140625 549.5703125H1000V450.302734375z" />
    <glyph glyph-name="altimeter"
      unicode="&#xEA36;"
      horiz-adv-x="1000" d="M202.1484375 500.60546875L0 298.447265625V701.552734375zM748.80859375 949.169921875V848.69140625H250V949.169921875zM748.80859375 549.638671875V450.361328125H250V549.638671875zM748.80859375 151.318359375V50.830078125H250V151.30859375zM649.53125 749.404296875V650.126953125H349.27734375V749.404296875zM649.53125 349.873046875V250.595703125H349.27734375V349.873046875zM1000 298.447265625L799.052734375 500.595703125L1000 701.552734375z" />
    <glyph glyph-name="amazon-clouddrive"
      unicode="&#xEA37;"
      horiz-adv-x="1000" d="M147.314453125 557.080078125A126.18164062500001 126.18164062500001 0 0 0 188.02734375 550.595703125Q188.02734375 607.685546875 214.39453125 656.318359375T285.05859375 732.861328125A178.583984375 178.583984375 0 0 0 382.03125 760.7421875Q443.10546875 760.7421875 491.6113281249999 724.423828125T561.6796875 629.697265625Q584.4238281249999 662.119140625 617.34375 679.62890625A149.47265625 149.47265625 0 0 0 688.6328125 697.1484375A145.03906250000003 145.03906250000003 0 0 0 767.6562499999999 674.43359375Q803.5742187499999 651.73828125 825.1464843749999 612.177734375T846.6796875 525.947265625A200.83984374999997 200.83984374999997 0 0 0 843.095703125 487.041015625A111.9921875 111.9921875 0 0 0 881.416015625 493.525390625Q930.48828125 493.525390625 965.2343750000002 456.552734375T1000 366.38671875Q1000 313.2031249999999 965.25390625 276.2402343749999T881.4453125 239.2578125H147.314453125A136.015625 136.015625 0 0 0 73.662109375 260.6640625A153.10546875 153.10546875 0 0 0 19.755859375 318.359375Q0 354.716796875 0 398.1640625T19.755859375 477.9492187500001A153.3203125 153.3203125 0 0 0 73.65234375 535.673828125A136.15234374999997 136.15234374999997 0 0 0 147.314453125 557.080078125z" />
    <glyph glyph-name="amazon"
      unicode="&#xEA38;"
      horiz-adv-x="1000" d="M898.92578125 123.349609375Q819.873046875 64.6582031249999 707.314453125 32.3339843749999Q601.9140625 0 496.5234375 0Q355.1953125 0 227.0703125 50.29296875Q103.7109375 98.14453125 4.306640625 187.98828125Q-2.880859375 195.15625 1.9140625 201.7578125T15.078125 202.36328125Q122.861328125 140.0683593750001 247.412109375 106.54296875A988.9453124999999 988.9453124999999 0 0 1 507.294921875 71.81640625A939.453125 939.453125 0 0 1 694.130859375 91.015625A1040.2441406250002 1040.2441406250002 0 0 1 883.349609375 148.505859375Q891.73828125 153.291015625 898.92578125 149.0917968750001T906.73828125 137.1191406250001Q907.3046875 129.31640625 898.92578125 123.349609375zM686.953125 245.498046875A22.51953125 22.51953125 0 0 0 671.982421875 238.90625A25.322265625 25.322265625 0 0 0 655.8105468750001 243.1054687499999Q630.6640625000001 263.466796875 615.0976562500001 281.42578125Q605.5078125000001 293.3984374999999 588.7304687500001 317.3437499999999L579.1503906250002 331.71875Q524.0429687500002 275.4296875 477.3632812500002 255.0683593749999T358.8085937500002 234.7070312499999Q270.1855468750002 234.7070312499999 216.2890625000002 286.2109374999999Q157.5976562500002 342.4999999999999 157.5976562500002 443.0957031249999Q157.5976562500002 522.1484374999999 198.3105468750002 579.6289062499999Q235.4199218750002 633.505859375 301.3085937500002 662.2656249999999Q342.05078125 680.234375 404.296875 691.015625Q441.40625 697.001953125 514.4726562499999 704.1796875L552.79296875 707.7734375V735.3515625Q552.79296875 766.484375 550.3906249999999 780.859375Q547.9882812499999 806.005859375 536.6210937499999 823.369140625T502.4999999999999 849.130859375A103.701171875 103.701171875 0 0 1 460.5761718749999 857.509765625Q421.0546875 857.509765625 392.3144531249999 837.158203125Q361.1523437499999 816.796875 353.9941406249999 777.275390625A38.26171875 38.26171875 0 0 0 345 760.498046875Q338.4277343749999 753.310546875 330.029296875 752.119140625L200.72265625 766.474609375A31.845703125 31.845703125 0 0 0 184.55078125 776.044921875Q177.978515625 783.232421875 180.361328125 794.0234375Q200.72265625 902.978515625 294.140625 955.693359375Q369.560546875 1000 479.765625 1000A366.748046875 366.748046875 0 0 0 586.357421875 984.423828125Q646.2207031249999 967.646484375 680.966796875 932.9296875Q709.6972656249999 906.5625 722.8710937499999 871.85546875Q734.8437499999999 841.89453125 738.447265625 801.19140625Q740.849609375 776.015625 740.849609375 723.349609375V494.619140625Q740.849609375 456.298828125 754.013671875 427.5390625Q761.181640625 409.580078125 782.75390625 380.8398437499999L791.142578125 370.0976562499999A40.849609375 40.849609375 0 0 0 797.71484375 350.9277343749999Q798.30078125 341.357421875 789.90234375 334.16015625L688.14453125 245.498046875zM552.822265625 572.4609375V601.201171875Q464.1992187500001 601.201171875 416.2890625000001 576.044921875Q354.0234375 543.7109375 354.0234375 465.8203125Q354.0234375 422.71484375 375.56640625 395.76171875T435.44921875 368.818359375Q462.978515625 368.818359375 486.943359375 384.9804687499999T527.67578125 430.4882812499999Q544.43359375 459.7851562499999 549.2382812500001 495.7714843749999Q552.822265625 518.515625 552.83203125 565.224609375zM944.423828125 174.853515625Q934.833984375 186.826171875 888.125 185.595703125Q862.978515625 184.375 817.48046875 179.609375H816.26953125Q809.08203125 178.388671875 807.890625 183.7792968749999T813.876953125 193.9648437499999Q842.6074218749999 214.3261718749999 884.541015625 221.5136718749999A280.2734375 280.2734375 0 0 0 952.802734375 222.705078125Q983.935546875 219.12109375 990.517578125 210.732421875T992.314453125 172.412109375A200.27343750000003 200.27343750000003 0 0 0 973.1640625 106.5429687499999Q955.205078125 67.0214843749999 928.857421875 44.2675781249999Q921.650390625 39.462890625 916.865234375 41.2695312499999T915.673828125 51.4453124999999Q932.431640625 94.5507812499998 939.6386718749998 118.5058593749998Q952.802734375 164.0625 944.443359375 174.853515625z" />
    <glyph glyph-name="ambulance"
      unicode="&#xEA39;"
      horiz-adv-x="1000" d="M863.69140625 681.572265625L1000 500.546875V272.6171875H909.4921875A130.546875 130.546875 0 0 0 890.9375 204.462890625A141.07421875 141.07421875 0 0 0 841.3281250000001 154.853515625A130.634765625 130.634765625 0 0 0 773.154296875 136.298828125A133.37890625 133.37890625 0 0 0 704.462890625 154.853515625A135.26367187499997 135.26367187499997 0 0 0 654.853515625 204.462890625Q636.845703125 235.537109375 636.8652343750001 272.6171875H363.134765625Q363.134765625 235.5078125 345.146484375 204.462890625A135.46875 135.46875 0 0 0 295.537109375 154.853515625A133.466796875 133.466796875 0 0 0 226.826171875 136.298828125A130.546875 130.546875 0 0 0 158.671875 154.853515625A141.005859375 141.005859375 0 0 0 109.04296875 204.462890625A130.537109375 130.537109375 0 0 0 90.48828125 272.6171875H0V773.173828125Q0 810.283203125 26.71875 836.962890625T90.5078125 863.681640625H727.373046875V681.572265625zM226.826171875 203.935546875Q255.146484375 203.935546875 275.3515625000001 224.1015625T295.5371093750001 272.6269531250001Q295.5371093750001 300.9472656250001 275.3515625000001 321.1523437500001T226.8261718750001 341.3378906250001Q198.505859375 341.3378906250001 178.84765625 321.1523437500001T159.1796875 272.626953125Q159.1796875 244.306640625 178.80859375 224.1015625T226.826171875 203.935546875zM318.427734375 773.18359375V636.865234375H182.109375V545.25390625H318.427734375V408.935546875H408.935546875V545.25390625H545.25390625V636.865234375H408.935546875V773.173828125zM773.173828125 203.935546875Q801.494140625 203.935546875 821.15234375 224.1015625T840.8203125 272.626953125Q840.8203125 300.947265625 821.19140625 321.1523437499999T773.203125 341.3378906249999Q744.8828125 341.3378906249999 724.6777343749999 321.1523437499999T704.51171875 272.6269531249999Q704.51171875 244.3066406249999 724.6777343749999 224.1015624999998T773.173828125 203.935546875zM840.8203125 613.955078125H727.373046875V500.546875H930.205078125z" />
    <glyph glyph-name="amplifier"
      unicode="&#xEA3A;"
      horiz-adv-x="1000" d="M407.109375 964.404296875H592.890625Q611.787109375 964.404296875 625.693359375 950.498046875T639.6484375 917.685546875H917.685546875V82.314453125H824.21875A45.80078124999999 45.80078124999999 0 0 0 810.869140625 49.5019531249999A45.68359375 45.68359375 0 0 0 745.234375 49.5019531249999A45.78125 45.78125 0 0 0 731.89453125 82.314453125H268.0273437500001A45.80078124999999 45.80078124999999 0 0 0 254.6777343750001 49.5019531249999A45.6640625 45.6640625 0 0 0 189.0625 49.5019531249999A45.80078124999999 45.80078124999999 0 0 0 175.78125 82.314453125H82.314453125V917.685546875H360.3515625Q360.3515625 936.6015625 374.2578125 950.498046875T407.109375 964.404296875zM175.78125 824.21875V639.6484375H824.21875V824.21875zM268.10546875 778.61328125Q287.021484375 778.61328125 300.9179687500001 764.697265625T314.8242187500001 731.884765625Q314.8242187500001 712.96875 300.9179687500001 699.08203125T268.10546875 685.17578125Q249.1894531250001 685.17578125 235.2929687500001 699.08203125T221.38671875 731.884765625Q221.38671875 750.80078125 235.2929687500001 764.697265625T268.076171875 778.642578125zM500.5664062500001 546.15234375Q449.3847656250001 546.15234375 407.1191406250001 521.1328125A188.720703125 188.720703125 0 0 1 339.84375 453.828125Q314.82421875 411.5527343750001 314.82421875 360.95703125T339.84375 267.51953125A182.998046875 182.998046875 0 0 1 407.109375 200.1953125Q449.384765625 175.78125 500 175.78125T592.87109375 200.1953125A182.998046875 182.998046875 0 0 1 660.15625 267.51953125Q685.17578125 310.3417968750001 685.1953125 360.9570312500001T660.15625 453.828125A188.720703125 188.720703125 0 0 1 592.8515625 521.1328125Q550.595703125 546.15234375 500.5664062500001 546.15234375zM407.109375 778.642578125Q426.025390625 778.642578125 439.921875 764.7265625T453.837890625 731.9140625Q453.837890625 712.998046875 439.921875 699.111328125T407.109375 685.205078125Q388.193359375 685.205078125 374.296875 699.111328125T360.3515625 731.9140625Q360.3515625 750.830078125 374.2578125 764.7265625T407.109375 778.642578125zM500.5566406249999 778.642578125H592.8808593749999V731.923828125H500.5664062500001zM639.5996093749999 778.642578125H685.205078125V685.205078125H639.6484375zM731.9238281249999 778.642578125H778.6425781249999V685.205078125H731.923828125z" />
    <glyph glyph-name="anchor"
      unicode="&#xEA3B;"
      horiz-adv-x="1000" d="M579.53125 979.169921875A156.81640625 156.81640625 0 0 0 636.9921875000001 921.708984375A154.51171874999997 154.51171874999997 0 0 0 658.4765625000001 842.177734375Q658.4765625000001 792.9296875 629.4335937500001 751.884765625T552.392578125 694.43359375V579.55078125H710.234375V473.4765625H552.392578125V109.853515625A338.94531249999994 338.94531249999994 0 0 1 787.24609375 263.88671875H710.234375V368.681640625H974.111328125V106.0546875H868.056640625V194.43359375Q806.181640625 103.515625 708.3203125 51.7578125T500 0Q389.521484375 0 291.66015625 51.7578125T131.943359375 194.43359375V106.0546875H25.888671875V368.681640625H289.765625V263.88671875H212.75390625A338.94531249999994 338.94531249999994 0 0 1 447.607421875 109.853515625V473.4765625H289.765625V579.55078125H447.607421875V694.43359375Q399.5996093750001 710.830078125 370.576171875 751.875T341.533203125 842.16796875A157.451171875 157.451171875 0 0 0 421.083984375 979.169921875A158.20312499999997 158.20312499999997 0 0 0 500.634765625 1000Q543.5546875 1000 579.53125 979.169921875zM462.75390625 880.048828125Q447.59765625 864.8828125 447.607421875 842.7734375T462.75390625 805.52734375Q477.91015625 790.37109375 500 790.380859375T537.236328125 805.52734375Q552.392578125 820.703125 552.392578125 842.7734375T537.236328125 880.01953125A49.85351562499999 49.85351562499999 0 0 1 500.6445312499999 895.17578125Q477.900390625 895.205078125 462.75390625 880.048828125z" />
    <glyph glyph-name="android-debug-bridge"
      unicode="&#xEA3C;"
      horiz-adv-x="1000" d="M788.65234375 751.953125A324.68750000000006 324.68750000000006 0 0 0 824.21875 602.900390625V556.171875H175.78125V602.900390625A324.68750000000006 324.68750000000006 0 0 0 211.34765625 751.953125Q246.943359375 818.681640625 309.228515625 864.2578125L211.34765625 961.064453125L249.169921875 1000L355.947265625 893.212890625Q427.138671875 927.734375 500 927.734375T642.9296875 893.251953125L750.830078125 1000L788.662109375 961.064453125L690.771484375 864.2578125Q753.056640625 818.681640625 788.65234375 751.953125zM175.78125 510.576171875H824.21875V324.8046875Q824.21875 235.810546875 780.859375 160.15625Q737.470703125 86.748046875 664.0625 44.501953125Q588.427734375 0 500 0T335.9375 44.501953125Q262.509765625 86.748046875 219.140625 160.15625Q175.78125 235.810546875 175.78125 324.8046875zM393.798828125 662.919921875Q407.1484375 676.26953125 407.1484375 695.732421875T393.798828125 728.544921875Q380.44921875 741.89453125 360.99609375 741.89453125T328.125 728.583984375Q314.775390625 715.234375 314.775390625 695.771484375T328.125 662.958984375A43.9453125 43.9453125 0 0 1 360.3515625 649.619140625Q380.41015625 649.619140625 393.759765625 662.958984375zM671.89453125 662.919921875Q685.2441406249999 676.26953125 685.2441406249999 695.732421875T671.875 728.583984375Q658.525390625 741.93359375 639.0625 741.93359375T606.25 728.583984375Q592.900390625 715.234375 592.91015625 695.771484375T606.25 662.958984375Q619.5996093749999 649.609375 639.6289062499999 649.619140625A43.9453125 43.9453125 0 0 1 671.875 662.958984375z" />
    <glyph glyph-name="android-studio"
      unicode="&#xEA3D;"
      horiz-adv-x="1000" d="M449.580078125 1000H550.419921875V897.939453125H575.947265625Q607.5390625 897.939453125 630.01953125 876.064453125T652.48046875 822.59765625V645.205078125L629.4140625 622.0703125L713.251953125 478.681640625A315.95703125 315.95703125 0 0 1 780.068359375 577.1484375A292.4609375 292.4609375 0 0 1 804.3847656249999 695.009765625H905.2734375A402.50000000000006 402.50000000000006 0 0 0 765.498046875 388.818359375L923.45703125 112.998046875L930.7421875 0L835.9375 61.97265625L680.439453125 331.708984375Q595.380859375 290.390625 500 290.390625T319.560546875 331.708984375L164.0625 61.97265625L69.2578125 0L76.54296875 112.998046875L370.5859375 622.0703125L347.5000000000001 645.15625V822.59765625Q347.5000000000001 854.189453125 369.9609375000001 876.064453125T424.04296875 897.939453125H449.5703125zM370.5859375 420.419921875Q431.328125 391.25 500 391.25T629.4140625 420.419921875L555.283203125 547.98828125Q532.2265625 524.8828125 500 524.90234375T444.716796875 547.98828125zM500.615234375 797.08984375Q478.7304687499999 797.08984375 464.16015625 781.884765625T449.58984375 746.03515625Q449.58984375 725.37109375 464.16015625 710.205078125T500 695.01953125Q521.259765625 695.01953125 535.830078125 710.205078125T550.4199218750001 746.03515625Q550.4199218750001 766.69921875 535.830078125 781.884765625T500.615234375 797.08984375z" />
    <glyph glyph-name="android"
      unicode="&#xEA3E;"
      horiz-adv-x="1000" d="M190.302734375 648.359375Q208.779296875 630.37109375 208.7890625 604.4140625V312.685546875Q208.7890625 286.689453125 190.302734375 268.2226562500001T145.849609375 249.7460937500001Q119.873046875 249.7460937500001 101.396484375 268.2226562500001T82.919921875 312.685546875V604.39453125Q82.919921875 630.37109375 101.396484375 648.33984375T145.859375 666.318359375Q171.81640625 666.337890625 190.302734375 648.359375zM722.28515625 822.1875Q750.244140625 769.23828125 750.25390625 708.310546875H249.74609375Q249.74609375 769.23828125 277.216796875 822.1875A249.39453125 249.39453125 0 0 0 352.65625 910.078125L297.705078125 964.033203125A23.193359375000004 23.193359375000004 0 0 0 291.708984375 979.4921875A19.726562499999996 19.726562499999996 0 0 0 297.6953125 993.96484375A19.74609375 19.74609375 0 0 0 312.1875 1000A23.30078125 23.30078125 0 0 0 327.67578125 994.013671875L388.61328125 932.0703125A249.6484375 249.6484375 0 0 0 610.390625 932.0703125L672.32421875 994.013671875A20.5078125 20.5078125 0 0 0 701.2890625 994.013671875A19.775390624999996 19.775390624999996 0 0 0 707.28515625 979.4921875A23.30078125 23.30078125 0 0 0 701.298828125 964.00390625L647.34375 910.087890625A258.7890625 258.7890625 0 0 0 722.28515625 822.16796875zM249.74609375 666.337890625H750.25390625V249.74609375Q750.25390625 232.763671875 737.75390625 220.78125A41.123046875 41.123046875 0 0 0 708.2910156250001 208.7890625000001H666.2988281250001V62.939453125Q666.2988281250001 36.943359375 648.3203125000001 18.4765625000001T604.3750000000001 1e-13Q578.3984375000001 1e-13 559.9218750000001 18.4765625000001T541.4355468750002 62.939453125V208.7890625H458.544921875V62.939453125Q458.544921875 36.943359375 440.05859375 18.4765625000001T395.595703125 0Q369.619140625 0 351.650390625 18.4765625T333.671875 62.9394531249999V208.7890625H291.6796875A41.1328125 41.1328125 0 0 0 262.20703125 220.7812499999999A38.69140625 38.69140625 0 0 0 249.7265625 249.7460937499999zM416.58203125 833.173828125H374.58984375V792.216796875H416.58203125zM625.380859375 833.173828125H583.388671875V792.216796875H625.380859375zM898.59375 648.359375Q917.0703124999998 630.37109375 917.0800781249998 604.4140625V312.685546875Q917.0800781249998 286.689453125 898.59375 268.2226562500001T854.140625 249.7460937500001Q828.1640625 249.7460937500001 809.6875 268.2226562500001T791.2109375 312.685546875V604.39453125Q791.2109375 630.37109375 809.6875 648.33984375T854.140625 666.318359375Q880.1171875 666.337890625 898.59375 648.359375z" />
    <glyph glyph-name="angular"
      unicode="&#xEA3F;"
      horiz-adv-x="1000" d="M500.634765625 1000L964.6875 833.5546875L894.072265625 218.154296875L500.634765625 0L105.927734375 218.154296875L35.3125 833.5546875zM500.634765625 889.033203125L209.3359375 237.0703125H317.734375L375.7421875 383.349609375H622.958984375L680.966796875 237.0703125H789.365234375zM585.1171875 472.890625H414.8828125L500.634765625 677.177734375z" />
    <glyph glyph-name="angularjs"
      unicode="&#xEA40;"
      horiz-adv-x="1000" d="M500.634765625 1000L964.6875 833.5546875L894.072265625 218.154296875L500.634765625 0L105.927734375 218.154296875L35.3125 833.5546875zM500.634765625 894.072265625L132.40234375 762.9296875L189.150390625 277.4121093749999L500.6738281250001 105.9179687499999L810.849609375 277.421875L867.59765625 762.939453125zM500.634765625 829.755859375L740.234375 288.76953125H650.693359375L602.7734374999999 409.86328125H397.2265625L348.037109375 288.76953125H258.505859375zM569.970703125 484.23828125L500.634765625 654.47265625L430 484.23828125z" />
    <glyph glyph-name="animation"
      unicode="&#xEA41;"
      horiz-adv-x="1000" d="M600.009765625 1000V899.4140625H100.5859375V400H0V899.4140625Q0 941.30859375 29.296875 970.703125T100.5859375 1000zM800 800V699.4140625H300.595703125V200H200.009765625V699.404296875Q200.009765625 741.30859375 229.306640625 770.693359375T300.595703125 799.990234375zM899.4140625 600.009765625Q941.318359375 600.009765625 970.703125 570.712890625T1000 500.654296875V100.5859375Q1000 58.681640625 970.703125 29.296875T899.4140625 0H500.60546875Q458.671875 0 429.31640625 29.296875T400.01953125 100.5859375V500.60546875Q400.01953125 541.30859375 429.31640625 570.6640625T500.60546875 599.9609375z" />
    </font>
</defs>
</svg>
